<?xml version="1.0" encoding="UTF-8"?>
<!DOCTYPE svg PUBLIC "-//W3C//DTD SVG 1.1//EN" "http://www.w3.org/Graphics/SVG/1.1/DTD/svg11.dtd">
<!-- Creator: CorelDRAW X7 -->
<svg xmlns="http://www.w3.org/2000/svg" xml:space="preserve" width="0.333331in" height="0.32052in" version="1.1" style="shape-rendering:geometricPrecision; text-rendering:geometricPrecision; image-rendering:optimizeQuality; fill-rule:evenodd; clip-rule:evenodd"
viewBox="0 0 333 321"
 xmlns:xlink="http://www.w3.org/1999/xlink">
 <defs>
  <style type="text/css">
   <![CDATA[
    .fil0 {fill:#373435}
    .fil1 {fill:#F58634}
    .fil2 {fill:#FEFEFE;fill-rule:nonzero}
    .fil6 {fill:#FEFEFE;fill-rule:nonzero}
    .fil4 {fill:#373435;fill-rule:nonzero}
    .fil5 {fill:#F58634;fill-rule:nonzero}
    .fil3 {fill:#2B2929;fill-rule:nonzero}
   ]]>
  </style>
 </defs>
 <g id="Layer_x0020_1">
  <metadata id="CorelCorpID_0Corel-Layer"/>
  <g id="_2249624474208">
   <path class="fil0" d="M9 308c0,2 0,4 -2,6 0,1 -2,2 -3,2 0,0 0,0 0,0 0,0 -1,-1 -1,-2 -1,-1 -1,-2 -1,-3 0,0 0,0 0,0 1,0 2,-1 2,-1 1,0 1,-1 1,-2 0,-1 0,-2 -1,-2 0,-2 -1,-3 -1,-3 0,-1 0,-2 0,-3 0,-2 0,-4 1,-5 1,-1 2,-2 3,-2 1,0 1,0 1,0 0,0 0,0 0,0 0,1 0,3 1,4 0,1 0,1 0,1 0,0 0,0 0,0 0,0 0,0 0,0 -1,0 -1,0 -1,0 0,0 -1,0 -1,0 0,1 -1,1 -1,2 0,1 1,1 1,2 1,2 1,3 1,3 1,1 1,2 1,3zm17 7c0,0 0,0 -1,0 0,0 0,0 -1,0 -1,0 -1,0 -1,0 -1,0 -1,0 -1,0 0,-1 0,-2 0,-3 0,0 0,-1 0,-2 0,-1 0,-3 0,-3 0,-2 0,-2 -1,-2 0,0 0,0 -1,0 0,1 0,1 0,2 0,0 0,1 0,3 0,1 0,2 0,3 0,1 0,1 0,2 0,0 0,0 0,0l-3 0c0,0 0,0 0,0 0,-1 0,-1 0,-2 0,-1 0,-2 0,-3 0,0 0,-1 0,-1 0,-1 0,-2 0,-2 0,-2 -1,-2 -1,-2 -1,0 -1,0 -1,0 -1,1 -1,1 -1,1 0,1 0,3 0,5 0,1 0,3 0,4 0,0 0,0 0,0 0,0 0,0 0,0 -1,0 -1,0 -2,0 0,0 0,0 -1,0 0,0 0,0 0,0 0,0 0,0 0,0 0,-1 0,-2 0,-4 0,-2 0,-3 0,-4 0,-1 0,-3 0,-5 0,0 0,-1 0,-1 0,0 0,0 0,0 0,0 0,0 0,0 1,0 1,0 1,0 0,0 1,0 1,-1 0,0 1,0 1,0 0,0 0,1 0,1 0,1 0,1 0,1 0,0 0,0 0,0 1,-1 1,-1 2,-1 0,-1 1,-1 1,-1 1,0 1,0 2,1 0,0 1,1 1,2 0,-1 1,-2 1,-2 1,-1 1,-1 2,-1 1,0 1,0 2,1 0,1 1,2 1,3 0,1 0,1 0,2 0,2 0,2 0,3 0,1 0,2 0,3 0,1 0,2 0,3zm11 -7c0,0 0,2 0,3 0,2 0,3 0,4 0,0 0,0 0,0 -1,0 -2,1 -3,1 0,0 0,-1 0,-1 0,-1 0,-1 0,-1 0,0 0,0 0,0 -1,1 -2,2 -3,2 -1,0 -2,-1 -3,-3 0,-1 -1,-3 -1,-5 0,-2 1,-4 1,-6 1,-1 2,-2 4,-2 1,0 1,1 2,2 0,0 0,0 0,0 0,0 0,0 0,-1 0,0 0,-1 1,-1 0,0 0,0 1,1 1,0 1,0 1,0 0,0 0,0 0,0 0,0 0,1 0,1 0,2 0,4 0,6zm-3 0c0,-1 0,-2 0,-2 -1,-1 -1,-1 -2,-1 0,0 -1,0 -1,1 0,0 -1,1 -1,2 0,1 1,1 1,2 0,0 1,1 1,1 1,0 1,-1 2,-1 0,-1 0,-1 0,-2zm11 -2c0,0 0,0 0,0 0,0 0,0 -1,0 0,0 0,0 0,0 -1,0 -1,0 -1,1 0,0 -1,0 -1,1 0,1 0,1 0,2 0,1 0,2 0,2 0,1 0,1 0,2 1,0 1,1 1,1 0,0 -1,0 -1,0 0,0 -1,0 -1,0 -1,0 -1,0 -2,0 0,0 0,0 0,0 0,-1 0,-2 0,-4 0,-1 0,-3 0,-4 0,-2 0,-4 0,-6 0,0 0,0 0,0 0,0 0,0 0,0 0,0 1,0 1,0 1,-1 2,-1 2,-1 0,0 0,0 0,1 0,1 0,1 0,1 0,0 0,0 1,-1 1,0 1,-1 2,-1 0,0 0,1 0,1 0,0 0,1 0,1 0,1 0,1 0,1 0,1 0,1 0,2 0,0 0,1 0,1zm8 5c0,0 0,1 0,1 0,1 0,1 0,2 0,0 0,0 -1,0 0,0 0,0 0,1 -1,0 -2,1 -3,1 -1,0 -2,-1 -2,-4 0,0 0,-1 0,-3 0,-1 0,-2 0,-3 0,0 0,-1 -1,-1 0,0 0,0 0,0 0,0 0,0 0,0 0,0 0,0 0,0 0,0 0,0 0,-1 0,0 0,0 0,0 0,-1 0,-1 0,-1 0,-1 0,-1 0,-1 0,-1 0,-1 0,-1 1,0 1,0 1,0 0,-1 0,-1 0,-2 0,-1 0,-2 0,-2 0,-1 0,-2 0,-2 0,0 0,0 1,1 0,0 0,0 0,0 1,0 1,0 2,0 0,0 0,0 0,0 0,1 0,1 0,2 0,1 0,2 0,2 0,1 0,1 0,1 0,0 1,0 1,0 1,0 1,0 1,0 0,0 0,0 0,0 0,0 0,1 0,1 0,0 0,1 0,1 0,0 0,1 0,1 0,1 0,1 0,1 0,0 0,1 0,1 0,0 0,0 -1,0 0,0 0,0 0,0l-1 0c0,0 0,0 0,0 0,0 0,1 0,1 0,1 0,1 0,1 0,1 0,2 0,2 0,1 1,1 1,1 0,0 1,0 1,0 0,0 0,0 0,0 1,0 1,0 1,0zm18 -7c0,3 -1,6 -2,8 -1,2 -2,3 -4,3 -1,0 -2,0 -3,0 -1,0 -1,0 -2,0 0,0 -1,0 -1,0 0,0 0,0 0,0 0,-1 0,-3 0,-5 0,-2 0,-4 0,-5 0,-1 0,-3 0,-6 0,-2 0,-4 0,-5 0,0 0,0 0,0 0,0 1,0 2,0 2,0 3,0 4,0 1,0 3,1 3,2 1,1 2,2 2,4 1,1 1,3 1,4zm-4 0c0,-1 0,-3 -1,-4 0,-1 -1,-2 -2,-2 -1,0 -2,1 -2,1 0,1 0,2 0,3 0,1 0,2 0,3 0,0 0,1 0,2 0,1 0,2 0,3 0,0 1,1 2,1 1,0 2,-1 2,-2 1,-1 1,-3 1,-5zm9 -7c0,2 -1,2 -2,2 0,0 -1,0 -1,0 0,-1 -1,-1 -1,-2 0,-1 1,-2 1,-2 0,-1 1,-1 1,-1 1,0 1,0 2,1 0,0 0,1 0,2zm0 11c0,1 0,2 0,4 0,1 0,2 0,3 0,0 0,0 0,0 -1,0 -1,0 -2,0 -1,0 -1,0 -1,0 0,0 0,0 0,0 0,0 -1,0 -1,0 0,-1 1,-2 1,-4 0,-1 0,-2 0,-3 0,-3 -1,-5 -1,-7 0,0 0,0 0,0 0,0 0,0 1,0 0,0 0,0 0,0 1,0 1,0 1,0 0,0 1,0 1,0 0,0 1,0 1,0 0,0 0,0 0,0 0,0 0,0 0,0 0,2 0,5 0,7zm11 3c0,3 0,5 -1,7 -1,1 -2,2 -4,2 0,0 -1,-1 -2,-1 -1,0 -2,-1 -2,-1 0,0 0,-1 1,-3 0,0 0,0 0,0 0,0 0,0 0,0 1,0 2,1 3,1 0,0 0,0 1,-1 0,0 1,-1 1,-1l0 -2c-1,1 -2,2 -3,2 -1,0 -2,-1 -3,-2 0,-1 -1,-3 -1,-5 0,-2 1,-4 1,-5 1,-1 2,-2 3,-2 1,0 2,1 2,2 0,0 1,0 1,0 0,0 0,0 0,-1 0,0 0,-1 0,-1 0,0 0,0 1,0 1,1 2,1 2,1 0,0 0,0 0,0 0,1 0,2 0,3 0,2 0,3 0,4 0,0 0,1 0,1 0,1 0,2 0,2zm-3 -4c0,-1 0,-1 -1,-2 0,0 0,-1 -1,-1 0,0 -1,1 -1,1 0,1 0,1 0,2 0,1 0,1 0,2 0,1 1,1 1,1 1,0 1,0 1,-1 1,-1 1,-1 1,-2zm9 -10c0,2 -1,2 -2,2 -1,0 -1,0 -2,0 0,-1 0,-1 0,-2 0,-1 0,-2 0,-2 1,-1 1,-1 2,-1 0,0 1,0 1,1 0,0 1,1 1,2zm-1 11c0,1 0,2 0,4 0,1 0,2 0,3 0,0 0,0 0,0 0,0 -1,0 -1,0 -1,0 -2,0 -2,0 0,0 0,0 0,0 0,0 0,0 0,0 0,-1 0,-2 0,-4 0,-1 0,-2 0,-3 0,-3 0,-5 0,-7 0,0 0,0 0,0 0,0 0,0 0,0 0,0 0,0 1,0 0,0 0,0 1,0 0,0 0,0 0,0 1,0 1,0 1,0 0,0 0,0 0,0 0,0 0,0 0,0 0,2 0,5 0,7zm8 3c0,0 0,1 0,1 0,1 0,1 0,2 0,0 0,0 0,0 0,0 0,0 0,1 -1,0 -2,1 -3,1 -2,0 -3,-1 -3,-4 0,0 0,-1 1,-3 0,-1 0,-2 0,-3 0,0 -1,-1 -1,-1 0,0 0,0 0,0 0,0 0,0 0,0 0,0 -1,0 -1,0 0,0 0,0 0,-1 1,0 1,0 1,0 0,-1 0,-1 -1,-1 0,-1 0,-1 0,-1 0,-1 1,-1 1,-1 0,0 0,0 0,0 0,-1 0,-1 0,-2 0,-1 0,-2 0,-2 0,-1 1,-2 1,-2 0,0 0,0 0,1 1,0 1,0 1,0 0,0 1,0 2,0 0,0 0,0 0,0 0,1 0,1 0,2 0,1 0,2 0,2 0,1 0,1 0,1 0,0 1,0 1,0 0,0 1,0 1,0 0,0 0,0 0,0 0,0 0,1 0,1 0,0 0,1 0,1 0,0 0,1 0,1 0,1 0,1 0,1 0,0 0,1 0,1 0,0 0,0 -1,0 0,0 0,0 0,0l-1 0c0,0 0,0 0,0 0,0 0,1 0,1 0,1 0,1 0,1 0,1 0,2 0,2 0,1 0,1 1,1 0,0 0,0 1,0 0,0 0,0 0,0 0,0 0,0 0,0zm11 -3c0,0 0,2 0,3 0,2 0,3 0,4 0,0 0,0 0,0 -1,0 -2,1 -3,1 0,0 0,-1 0,-1 0,-1 0,-1 0,-1 0,0 0,0 0,0 -1,1 -2,2 -3,2 -1,0 -2,-1 -3,-3 -1,-1 -1,-3 -1,-5 0,-2 0,-4 1,-6 1,-1 2,-2 4,-2 1,0 1,1 2,2 0,0 0,0 0,0 0,0 0,0 0,-1 0,0 0,-1 0,-1 1,0 1,0 2,1 0,0 1,0 1,0 0,0 0,0 0,0 0,0 0,1 0,1 0,2 0,4 0,6zm-3 0c0,-1 0,-2 -1,-2 0,-1 0,-1 -1,-1 0,0 -1,0 -1,1 -1,0 -1,1 -1,2 0,1 0,1 1,2 0,0 1,1 1,1 1,0 1,-1 1,-1 1,-1 1,-1 1,-2zm8 -2c0,3 0,5 0,7 0,0 0,0 0,1 0,0 0,1 0,1 0,0 0,0 0,0 0,0 -1,0 -1,0 -1,0 -2,0 -2,0 0,0 0,0 0,0 0,0 0,0 0,-1 0,-1 0,-2 0,-4 0,-2 0,-3 0,-4 0,-4 0,-6 0,-6 0,-2 0,-4 0,-6 0,0 0,0 0,0 0,0 0,0 0,0l3 0c0,0 1,0 1,0l0 0c-1,5 -1,9 -1,12zm18 -4c0,2 0,4 -1,6 -1,2 -2,2 -3,2 -1,0 -1,0 -2,0 0,0 -1,0 -1,0 0,0 0,1 0,1 0,0 0,1 0,2 0,1 0,2 0,2 0,0 0,0 0,0 -1,0 -1,0 -2,0 -1,0 -1,0 -2,0 0,0 0,0 0,0 0,-1 0,-3 0,-5 0,-3 0,-4 0,-5 0,-4 0,-7 0,-11l0 0c0,0 0,0 0,0 1,0 2,0 3,0 1,0 2,0 3,0 2,0 3,1 4,2 1,2 1,4 1,6zm-4 0c0,-2 0,-3 -2,-3 -1,0 -1,0 -1,0 0,0 0,1 0,3 0,1 0,1 0,2 0,0 0,1 0,1 0,0 0,1 1,1 2,0 2,-2 2,-4zm15 6c0,0 0,2 0,3 0,2 0,3 0,4 0,0 0,0 0,0 -1,0 -2,1 -3,1 0,0 0,-1 0,-1 0,-1 0,-1 0,-1 0,0 0,0 0,0 -1,1 -2,2 -3,2 -1,0 -2,-1 -3,-3 -1,-1 -1,-3 -1,-5 0,-2 0,-4 1,-6 1,-1 2,-2 4,-2 1,0 1,1 2,2 0,0 0,0 0,0 0,0 0,0 0,-1 0,0 0,-1 1,-1 0,0 0,0 1,1 0,0 1,0 1,0 0,0 0,0 0,0 0,0 0,1 0,1 0,2 0,4 0,6zm-3 0c0,-1 0,-2 -1,-2 0,-1 0,-1 -1,-1 0,0 -1,0 -1,1 -1,0 -1,1 -1,2 0,1 0,1 1,2 0,0 1,1 1,1 1,0 1,-1 1,-1 1,-1 1,-1 1,-2zm14 -4c0,2 0,4 0,4 0,1 -1,2 -2,6 0,0 -1,1 -2,3 0,2 -1,3 -1,3 0,0 -1,1 -3,1 0,0 -1,-1 -1,-1 0,0 0,-1 0,-1 0,0 0,-1 0,-1 0,-1 0,-1 0,-1 0,0 0,-1 0,-1 1,0 2,0 2,-2 0,0 0,-1 -1,-3 -1,-2 -1,-3 -1,-3 0,-1 0,-2 0,-4 0,0 0,-1 0,-1 0,-1 0,-2 0,-2 0,0 0,0 0,0 0,0 1,0 1,0 1,0 1,0 2,0 0,0 0,0 0,0 0,1 0,1 0,2 0,0 0,1 0,1 0,1 0,2 0,2 0,1 0,2 1,3 0,1 0,1 0,1 1,0 1,0 1,-1 0,-1 1,-2 1,-2 0,-1 0,-2 0,-3 0,-1 0,-1 0,-2 0,0 0,-1 0,-1 0,0 0,0 0,0 0,0 1,0 1,0 1,0 1,0 2,0 0,0 0,0 0,0 0,1 0,2 0,3z"/>
   <path class="fil0" d="M172 315c0,0 0,0 0,0 0,0 0,0 -1,0 -1,0 -1,0 -2,0 0,0 0,0 0,0 0,-1 0,-2 0,-3 0,0 0,-1 0,-2 0,-1 0,-3 0,-3 0,-2 0,-2 -1,-2 0,0 -1,0 -1,0 0,1 0,1 0,2 0,0 0,1 0,3 0,1 0,2 0,3 0,1 0,1 0,2 0,0 0,0 -1,0l-2 0c-1,0 -1,0 -1,0 0,-1 0,-1 0,-2 0,-1 0,-2 0,-3 0,0 0,-1 0,-1 0,-1 0,-2 0,-2 0,-2 0,-2 -1,-2 0,0 0,0 -1,0 0,1 0,1 0,1 0,1 0,3 0,5 0,1 0,3 0,4 0,0 0,0 0,0 0,0 0,0 -1,0 0,0 0,0 -1,0 0,0 -1,0 -1,0 0,0 0,0 0,0 -1,0 -1,0 -1,0 0,-1 0,-2 0,-4 0,-2 0,-3 0,-4 0,-1 0,-3 0,-5 0,0 0,-1 0,-1 0,0 0,0 0,0 1,0 1,0 1,0 1,0 1,0 1,0 0,0 0,0 1,-1 0,0 0,0 0,0 1,0 1,1 1,1 0,1 0,1 0,1 0,0 0,0 0,0 1,-1 1,-1 1,-1 1,-1 1,-1 2,-1 0,0 1,0 1,1 1,0 1,1 1,2 1,-1 1,-2 2,-2 0,-1 1,-1 2,-1 0,0 1,0 2,1 0,1 0,2 0,3 0,1 0,1 0,2 0,2 0,2 0,3 0,1 0,2 0,3 0,1 0,2 0,3zm11 -8c0,1 0,2 -1,2 0,0 0,0 -2,0 0,0 -1,0 -3,1 0,0 0,1 1,1 0,0 1,1 1,1 1,0 1,-1 2,-1 0,0 0,-1 1,-1 0,0 0,1 0,2 0,1 1,1 1,1 0,1 0,1 0,1 -1,1 -2,2 -4,2 -2,0 -3,-1 -4,-2 -1,-2 -1,-4 -1,-6 0,-3 0,-4 1,-6 1,-2 2,-2 4,-2 1,0 2,0 3,2 1,1 1,3 1,5zm-3 -1c0,-1 0,-1 -1,-2 0,0 0,0 -1,0 0,0 0,0 -1,0 0,1 0,2 0,2 0,0 0,1 0,1 1,0 1,-1 2,-1 1,0 1,0 1,0zm13 9c0,0 0,0 0,0 0,0 0,0 -1,0 -1,0 -2,0 -2,0 0,0 0,0 0,0 0,-1 0,-1 0,-2 0,-1 0,-2 0,-3 0,0 0,-1 0,-1 0,-1 0,-2 0,-2 0,-1 0,-2 -1,-2 0,0 -1,0 -1,0 0,1 -1,1 -1,1l0 9c0,0 0,0 0,0 0,0 0,0 -1,0 -1,0 -1,0 -2,0 0,0 0,0 0,0 0,-1 0,-2 0,-4 0,-1 0,-3 0,-3 0,-3 0,-5 0,-6 0,-1 0,-1 0,-1 0,0 0,0 0,0 0,0 1,0 1,0 1,-1 2,-1 2,-1 0,0 0,0 0,1 0,1 0,1 0,1 0,0 1,0 2,-1 0,-1 1,-1 1,-1 1,0 2,0 2,1 1,1 1,2 1,3l0 5c0,1 0,2 0,3 0,1 0,2 0,3zm8 -4c0,0 0,1 0,1 0,1 0,1 0,2 0,0 0,0 0,0 0,0 0,0 0,1 -1,0 -2,1 -3,1 -2,0 -3,-1 -3,-4 0,0 0,-1 0,-3 0,-1 0,-2 0,-3 0,0 0,-1 0,-1 0,0 0,0 0,0 0,0 0,0 0,0 -1,0 -1,0 -1,0 0,0 0,0 0,-1 0,0 0,0 0,0 0,-1 0,-1 0,-1 0,-1 0,-1 0,-1 0,-1 1,-1 1,-1 0,0 0,0 0,0 0,-1 0,-1 0,-2 0,-1 0,-2 0,-2 0,-1 0,-2 1,-2 0,0 0,0 0,1 1,0 1,0 1,0 0,0 1,0 2,0 0,0 0,0 0,0 0,1 0,1 0,2 0,1 0,2 0,2 0,1 0,1 0,1 0,0 0,0 1,0 0,0 1,0 1,0 0,0 0,0 0,0 0,0 0,1 0,1 0,0 0,1 0,1 0,0 0,1 0,1 0,1 0,1 0,1 0,0 0,1 0,1 0,0 -1,0 -1,0 0,0 0,0 -1,0l0 0c0,0 0,0 0,0 0,0 0,1 0,1 0,1 0,1 0,1 0,1 0,2 0,2 0,1 0,1 1,1 0,0 0,0 1,0 0,0 0,0 0,0 0,0 0,0 0,0zm12 -6c0,1 0,1 0,1 -1,0 -1,0 -2,0 0,0 0,2 0,3 0,0 0,2 0,3 0,1 0,2 0,3 0,0 0,0 0,0 0,0 -1,0 -2,0 0,0 -1,0 -1,0 0,0 0,0 0,0l0 -9c0,0 0,0 -1,0 0,0 0,0 0,0 0,0 0,0 0,0 0,0 0,0 0,0 0,-1 0,-3 0,-4 0,-1 0,-1 0,-1 0,0 0,0 1,0 0,-1 0,-2 0,-2 0,-2 0,-3 0,-4 1,-2 2,-2 4,-2 0,0 0,0 0,0 1,0 1,1 1,2 0,0 0,0 0,1 0,0 0,0 0,1 0,0 0,0 -1,0 0,0 -1,0 -1,1 0,0 0,1 0,2 0,0 0,0 0,1 0,0 0,0 1,0 0,0 1,0 1,0 0,0 0,0 0,0 0,1 0,1 0,2 0,1 0,2 0,2zm10 3c0,2 0,4 -1,5 -1,2 -2,3 -4,3 -1,0 -2,-1 -3,-2 -1,-2 -1,-4 -1,-6 0,-2 0,-4 1,-6 1,-1 2,-2 3,-2 2,0 3,1 4,2 1,2 1,3 1,6zm-3 0c0,-1 0,-2 0,-2 -1,-1 -1,-1 -2,-1 0,0 -1,0 -1,1 0,0 0,1 0,2 0,1 0,1 0,2 0,1 1,1 1,1 1,0 1,0 2,-1 0,-1 0,-1 0,-2zm11 -2c0,0 -1,0 -1,0 0,0 0,0 0,0 -1,0 -1,0 -1,0 0,0 -1,0 -1,1 0,0 0,0 0,1 0,1 0,1 0,2 0,1 0,2 0,2 0,1 0,1 0,2 0,0 0,1 0,1 0,0 0,0 0,0 -1,0 -1,0 -2,0 0,0 -1,0 -1,0 0,0 -1,0 -1,0 0,-1 0,-2 0,-4 0,-1 0,-3 0,-4 0,-2 0,-4 0,-6 0,0 0,0 0,0 0,0 0,0 0,0 0,0 1,0 2,0 1,-1 1,-1 1,-1 0,0 0,0 0,1 0,1 1,1 1,1 0,0 0,0 0,-1 1,0 2,-1 2,-1 0,0 1,1 1,1 0,0 0,1 0,1 0,1 0,1 0,1 0,1 0,1 0,2 0,0 0,1 0,1zm19 -1c0,3 -1,5 -2,8 -1,2 -3,3 -5,3 -2,0 -4,-1 -5,-3 -1,-3 -2,-5 -2,-8 0,-4 1,-6 2,-9 1,-2 3,-3 5,-3 2,0 4,1 5,3 1,3 2,5 2,9zm-4 0c0,-2 0,-3 -1,-4 0,-2 -1,-2 -2,-2 -1,0 -2,0 -2,2 -1,1 -1,2 -1,4 0,1 0,2 1,3 0,2 1,2 2,2 1,0 2,0 2,-2 1,-1 1,-2 1,-3zm15 -4c0,1 0,2 0,4 0,1 0,2 0,3 0,1 0,2 0,4 0,1 0,2 0,3 0,0 0,0 0,0 -1,0 -1,1 -2,1 -1,0 -1,-1 -1,-1 -1,0 -1,0 -1,0 0,0 0,-1 0,-1 0,0 0,-1 0,-1 0,0 0,1 -1,1 0,1 -1,2 -2,2 -1,0 -2,-2 -3,-4 0,-1 0,-3 0,-5 0,-2 0,-4 0,-6 0,0 1,0 1,0 0,0 1,0 1,0 1,0 1,0 1,0 1,0 1,0 1,0 0,0 0,0 0,0 0,2 0,3 0,5 0,1 0,3 0,3 0,1 0,2 1,2 0,0 0,0 1,-1 0,0 0,0 0,-1 0,0 0,-3 0,-8 0,0 0,0 0,0 0,0 1,0 1,0 0,0 0,0 1,0 1,0 1,0 1,0 1,0 1,0 1,0 0,0 0,0 0,0zm8 5c0,0 0,0 -1,0 0,0 0,0 0,0 0,0 -1,0 -1,0 0,0 -1,0 -1,1 0,0 0,0 0,1 0,1 0,1 0,2 0,1 0,2 0,2 0,1 0,1 0,2 0,0 0,1 0,1 0,0 0,0 0,0 -1,0 -1,0 -2,0 0,0 -1,0 -1,0 0,0 0,0 0,0 0,-1 0,-2 0,-4 0,-1 0,-3 0,-4 0,-2 -1,-4 -1,-6 0,0 0,0 0,0 0,0 0,0 0,0 1,0 1,0 2,0 1,-1 1,-1 1,-1 0,0 1,0 1,1 0,1 0,1 0,1 0,0 0,0 0,-1 1,0 2,-1 2,-1 1,0 1,1 1,1 0,0 0,1 0,1 0,1 0,1 0,1 0,1 0,1 0,2 0,0 0,1 0,1zm15 -7c0,0 0,0 0,0 0,0 -1,0 -2,0 -1,0 -2,0 -2,0 -1,0 -1,0 -1,0 0,0 0,0 0,1 0,1 0,2 0,2 0,0 0,0 1,0 0,0 1,0 2,0 0,0 1,0 2,0 0,0 0,0 0,2 0,2 0,3 0,3 0,0 0,0 -1,0 1,0 0,0 0,0 -1,0 -2,0 -3,0 -1,0 -1,0 -1,0 0,0 0,0 0,1 0,1 0,3 0,5 0,2 0,2 0,2 0,0 0,1 -1,1 0,0 0,0 -1,0 -1,0 -2,-1 -2,-1 0,0 0,0 0,0 0,-1 0,-3 0,-5 0,-3 0,-4 0,-5 0,-2 0,-3 0,-6 0,-3 0,-4 0,-5l0 0c0,0 0,0 0,0 0,0 1,0 2,0 1,0 2,0 2,0 1,0 1,0 2,0 1,0 2,-1 3,-1 0,0 0,1 0,1 0,1 0,1 0,2 0,0 0,1 0,1 0,1 0,1 0,2zm11 2c0,1 0,2 0,4 0,1 0,2 0,3 0,1 0,2 0,4 0,1 0,2 0,3 0,0 0,0 0,0 0,0 -1,1 -2,1 0,0 -1,-1 -1,-1 0,0 0,0 0,0 0,0 0,-1 0,-1 0,0 0,-1 0,-1 0,0 -1,1 -1,1 -1,1 -2,2 -2,2 -2,0 -3,-2 -3,-4 0,-1 0,-3 0,-5 0,-2 0,-4 0,-6 0,0 0,0 0,0 1,0 1,0 2,0 0,0 1,0 1,0 0,0 0,0 0,0 0,0 0,0 0,0 0,2 0,3 0,5 0,1 0,3 0,3 0,1 1,2 1,2 1,0 1,0 1,-1 1,0 1,0 1,-1 0,0 0,-3 0,-8 0,0 0,0 0,0 0,0 0,0 0,0 0,0 1,0 2,0 0,0 1,0 1,0 0,0 0,0 0,0 0,0 0,0 0,0zm8 10c0,0 0,1 0,1 0,1 0,1 0,2 0,0 0,0 0,0 0,0 0,0 0,1 -1,0 -2,1 -3,1 -2,0 -3,-1 -3,-4 0,0 0,-1 0,-3 0,-1 0,-2 0,-3 0,0 0,-1 0,-1 0,0 0,0 0,0 0,0 0,0 0,0 -1,0 -1,0 -1,0 0,0 0,0 0,-1 0,0 0,0 0,0 0,-1 0,-1 0,-1 0,-1 0,-1 0,-1 0,-1 0,-1 1,-1 0,0 0,0 0,0 0,-1 0,-1 0,-2 0,-1 0,-2 0,-2 0,-1 0,-2 0,-2 1,0 1,0 1,1 1,0 1,0 1,0 0,0 1,0 1,0 1,0 1,0 1,0 0,1 0,1 0,2 0,1 -1,2 -1,2 0,1 1,1 1,1 0,0 0,0 1,0 0,0 1,0 1,0 0,0 0,0 0,0 0,0 0,1 0,1 0,0 0,1 0,1 0,0 0,1 0,1 0,1 0,1 0,1 0,0 0,1 0,1 -1,0 -1,0 -1,0 0,0 -1,0 -1,0l0 0c0,0 0,0 0,0 0,0 0,1 0,1 0,1 0,1 0,1 0,1 0,2 0,2 0,1 0,1 1,1 0,0 0,0 0,0 1,0 1,0 1,0 0,0 0,0 0,0zm11 -10c0,1 0,2 0,4 0,1 0,2 0,3 0,1 0,2 0,4 0,1 0,2 0,3 0,0 0,0 0,0 -1,0 -1,1 -2,1 -1,0 -1,-1 -1,-1 0,0 -1,0 -1,0 0,0 0,-1 0,-1 0,0 0,-1 0,-1 0,0 0,1 -1,1 0,1 -1,2 -2,2 -1,0 -2,-2 -3,-4 0,-1 0,-3 0,-5 0,-2 0,-4 0,-6 1,0 1,0 1,0 0,0 1,0 1,0 1,0 1,0 2,0 0,0 0,0 0,0 0,0 0,0 0,0 0,2 0,3 0,5 0,1 0,3 0,3 0,1 0,2 1,2 0,0 1,0 1,-1 0,0 0,0 0,-1 0,0 0,-3 0,-8 0,0 0,0 0,0 0,0 1,0 1,0 0,0 1,0 1,0 1,0 1,0 2,0 0,0 0,0 0,0 0,0 0,0 0,0zm8 5c0,0 0,0 -1,0 0,0 0,0 0,0 0,0 -1,0 -1,0 0,0 -1,0 -1,1 0,0 0,0 0,1 0,1 0,1 0,2 0,1 0,2 0,2 0,1 0,1 0,2 0,0 0,1 0,1 0,0 0,0 0,0 -1,0 -1,0 -2,0 0,0 -1,0 -1,0 0,0 0,0 0,0 0,-1 0,-2 0,-4 0,-1 0,-3 0,-4 0,-2 -1,-4 -1,-6 0,0 0,0 0,0 0,0 0,0 0,0 1,0 1,0 2,0 1,-1 1,-1 1,-1 1,0 1,0 1,1 0,1 0,1 0,1 0,0 0,0 1,-1 0,0 1,-1 1,-1 1,0 1,1 1,1 0,0 0,1 0,1 0,1 0,1 0,1 0,1 0,1 0,2 0,0 0,1 0,1z"/>
   <path class="fil0" d="M332 307c0,1 -1,2 -1,2 0,0 -1,0 -2,0 -1,0 -2,0 -3,1 0,0 0,1 0,1 1,0 1,1 2,1 0,0 1,-1 1,-1 1,0 1,-1 1,-1 0,0 0,1 1,2 0,1 0,1 0,1 0,1 0,1 0,1 -1,1 -2,2 -3,2 -2,0 -3,-1 -4,-2 -1,-2 -2,-4 -2,-6 0,-3 1,-4 2,-6 1,-2 2,-2 3,-2 1,0 2,0 3,2 1,1 2,3 2,5zm-4 -1c0,-1 0,-1 0,-2 0,0 -1,0 -1,0 -1,0 -1,0 -1,0 0,1 -1,2 -1,2 0,0 1,1 1,1 0,0 1,-1 2,-1 0,0 0,0 0,0z"/>
   <polygon class="fil1" points="215,52 6,52 6,204 229,204 229,195 15,195 15,62 215,62 "/>
   <polygon class="fil0" points="245,67 21,67 21,218 245,218 245,209 31,209 31,76 245,76 "/>
   <polygon class="fil0" points="285,92 47,92 47,225 309,225 309,118 285,118 "/>
   <polygon class="fil1" points="309,196 285,196 285,222 309,222 "/>
   <polygon class="fil1" points="322,182 309,182 309,196 322,196 "/>
   <polygon class="fil1" points="333,118 309,118 309,144 333,144 "/>
   <polygon class="fil1" points="309,144 285,144 285,170 309,170 "/>
   <polygon class="fil1" points="285,118 261,118 261,144 285,144 "/>
   <polygon class="fil1" points="297,105 285,105 285,118 297,118 "/>
   <polygon class="fil1" points="285,170 261,170 261,196 285,196 "/>
   <path class="fil1" d="M285 82l-237 0 -11 0 0 12 0 128 0 12 11 0 285 0 0 -9 -274 0c0,-1 0,-2 0,-3 0,-6 -5,-11 -11,-11 0,0 -1,0 -1,0l0 -106c0,0 1,0 1,0 6,0 11,-5 11,-11 0,-1 0,-2 0,-2l226 0 0 -10z"/>
   <g>
    <path class="fil2" d="M123 196l0 -42 7 0 0 42 0 0 -7 0zm3 7l-5 -5 0 1 0 0 0 -1 0 0 0 0 0 0 0 0 1 0 0 0 0 0 0 0 0 0 0 0 0 0 0 -1 0 0 0 0 0 0 0 0 0 0 0 0 0 0 0 0 0 0 0 -1 0 0 1 0 0 0 0 0 0 0 0 0 0 0 0 0 7 0 0 0 0 0 0 0 0 1 0 0 0 0 0 0 0 1 0 0 -1 0 0 0 0 1 0 0 0 0 0 0 0 0 0 1 0 0 -1 0 0 0 0 0 0 1 0 0 0 0 -1 0 0 0 0 1 0 0 0 0 0 0 -1 0 0 1 0 0zm0 0l0 0 0 0 0 0zm-5 -4l0 -1 5 5 0 0 -5 -4 0 0zm0 0l0 0 0 0 0 0zm-4 6l0 -5 0 0 0 0 0 0 0 0 1 0 0 0 0 0 0 0 0 0 0 0 0 0 0 0 1 0 0 0 0 0 0 0 0 0 0 0 0 -1 0 0 1 0 0 0 0 0 0 0 0 0 0 0 0 0 0 0 0 0 1 0 0 0 0 0 0 0 5 4 0 0 0 0 -1 0 0 0 0 0 0 0 -1 1 0 0 0 0 0 0 -1 0 0 0 0 0 0 0 -1 1 0 0 0 0 -1 0 0 0 0 0 -1 0 0 0 0 0 0 0 -1 0 0 0 0 0 -1 0 0 0 0 0 -1 0 0 0 0 0zm-31 -5l31 0 0 5 -31 0 0 0 0 -5zm-6 3l0 -5 2 1 1 0 0 0 0 0 0 0 0 0 0 0 0 0 0 0 0 0 1 0 0 0 0 0 0 0 0 0 0 1 0 0 0 0 0 0 1 0 0 0 0 0 0 0 0 0 0 0 0 0 1 0 0 0 0 0 0 0 0 0 0 0 0 0 0 5 0 0 0 0 -1 0 0 0 0 0 -1 0 0 0 0 0 -1 0 0 0 0 0 0 0 -1 0 0 0 0 0 -1 0 0 0 0 -1 0 0 -1 0 0 0 0 0 -1 0 0 0 0 0 0 -1 -1 0 0 0 0 0 0 0 -1 0 0 0 3 0zm0 -5l1 0 1 1 -2 -1zm0 0l0 0 0 5 0 0 -3 0 3 -5zm0 5l-2 0 -1 0 3 0zm-7 -7l8 0 0 0 0 0 0 0 0 0 0 0 0 0 0 0 0 0 0 0 0 1 0 0 0 0 0 0 0 0 0 0 0 0 0 0 0 0 0 0 0 1 0 0 0 0 1 0 0 0 0 0 0 0 0 0 0 0 0 0 0 0 0 0 0 1 0 0 -5 4 0 -1 0 0 0 0 -1 0 0 0 0 -1 0 0 0 0 -1 0 0 0 0 -1 0 0 0 0 0 0 0 0 -1 -1 0 0 0 0 0 0 0 0 0 -1 0 0 0 0 0 0 0 -1 0 0 0 0 0 0 -1 -1 0 0 0 0 0 0 0 0zm8 -22l0 22 -8 0 0 -22 4 -3 4 3zm-8 0l0 -3 4 0 -4 3zm16 3l-12 0 0 -6 12 0 3 3 -3 3zm0 -6l3 0 0 3 -3 -3zm-4 23l0 -20 7 0 0 20 -3 3 -4 -3zm4 3l-4 0 0 -3 4 3zm26 0l-26 0 0 -6 26 0 3 3 -3 3zm3 -3l0 3 -3 0 3 -3zm0 -33l0 33 -7 0 0 -33 4 -3 3 3zm-3 -3l3 0 0 3 -3 -3zm-29 0l29 0 0 6 -29 0 0 0 0 -6zm-6 4l0 -6 2 1 1 0 0 0 0 0 0 0 0 0 0 0 0 0 0 0 0 0 1 1 0 0 0 0 0 0 0 0 0 0 0 0 0 0 0 0 1 0 0 0 0 0 0 0 0 0 0 0 0 0 1 0 0 0 0 0 0 0 0 0 0 0 0 0 0 6 0 0 0 0 -1 0 0 0 0 0 -1 0 0 0 0 -1 -1 0 0 0 0 0 0 0 -1 0 0 0 0 0 -1 0 0 0 0 0 0 0 -1 -1 0 0 0 0 -1 0 0 0 0 0 0 0 -1 0 0 -1 0 0 0 0 -1 0 0 0 3 1zm0 -6l1 0 1 1 -2 -1zm0 0l0 0 0 6 0 0 -3 -1 3 -5zm0 6l-2 0 -1 -1 3 1zm-7 -8l8 0 0 0 0 0 0 0 0 0 0 0 0 0 0 1 0 0 0 0 0 0 0 0 0 0 0 0 0 0 0 0 0 0 0 1 0 0 0 0 0 0 0 0 0 0 1 0 0 0 0 0 0 0 0 0 0 0 0 1 0 0 0 0 0 0 0 0 -5 4 0 0 0 -1 0 0 -1 0 0 0 0 0 0 0 0 -1 -1 0 0 0 0 0 0 0 0 -1 0 0 0 0 -1 0 0 -1 0 0 0 0 0 0 0 0 0 -1 0 0 0 0 0 0 0 -1 0 0 0 0 -1 0 0 -1 0 0 0 0 0 0zm8 -37l0 37 -8 0 0 -37 0 0 8 0zm-4 -7l5 4 0 0 0 0 0 0 0 0 0 0 0 0 0 0 0 0 0 0 0 0 0 1 -1 0 0 0 0 0 0 0 0 0 0 0 0 0 0 0 0 0 0 1 0 0 0 0 0 0 0 0 0 0 0 0 0 0 0 0 0 0 0 1 0 0 0 0 -8 0 0 0 0 -1 0 0 1 0 0 0 0 -1 0 0 0 0 0 0 0 -1 0 0 0 0 0 0 0 -1 0 0 0 0 1 0 0 0 0 -1 0 0 0 0 0 0 0 -1 1 0 0 0 0 0 0 0 0 0 1 -1 0 0 0 0 0 0 0 0zm0 0l0 0 1 -1 -1 1zm9 -3l0 5 0 0 0 0 0 0 0 0 0 1 0 0 0 0 -1 0 0 0 0 0 0 0 0 0 0 0 0 0 -1 0 0 0 0 0 0 0 0 0 0 0 0 0 0 0 -1 0 0 0 0 0 0 0 0 0 0 0 0 0 0 1 0 0 -1 0 0 0 -5 -4 0 0 1 0 0 -1 0 0 0 0 1 0 0 0 0 0 0 0 1 -1 0 0 0 0 0 0 1 0 0 0 0 0 1 0 0 0 0 -1 1 0 0 0 0 0 0 0 1 0 0 0 0 0 1 0 0 0 0 0 1 0 0 0 0 0 0 0zm31 5l-31 0 0 -5 31 0 0 0 0 5zm10 0l-7 0 1 2 0 0 0 0 0 0 0 -1 -1 0 0 0 0 0 0 0 0 0 0 0 0 0 0 0 -1 0 0 0 0 0 0 0 0 0 0 0 0 0 0 0 -1 0 0 0 0 0 0 0 0 0 0 0 0 0 0 0 -1 -1 0 0 0 0 0 0 0 -5 0 0 1 0 0 0 0 0 1 0 0 0 0 0 1 0 0 0 0 0 0 0 1 0 0 0 0 1 1 0 0 0 0 0 1 0 0 0 0 0 0 0 1 0 0 1 0 0 0 0 1 0 0 0 0 0 0 0 1 1 0 0 0 0 1 2zm-1 -2l1 1 0 1 -1 -2zm-6 2l0 0 7 0 0 0 -6 2 -1 -2zm1 2l-1 -1 0 -1 1 2zm9 3l-7 0 0 0 0 0 0 0 0 -1 0 0 0 0 0 0 -1 0 0 0 0 0 0 0 0 0 0 0 0 -1 0 0 0 0 0 0 0 0 0 0 0 0 0 0 0 0 0 0 0 -1 0 0 0 0 -1 0 0 0 0 0 0 0 0 0 0 0 0 0 5 -4 0 0 1 0 0 0 0 1 0 0 0 0 0 0 1 0 0 0 0 1 0 0 0 0 0 0 1 1 0 0 0 0 0 0 0 0 0 1 0 0 0 0 0 0 1 1 0 0 0 0 0 0 0 1 0 0 0 0 0 0 0 1 0 0 0 0zm-7 37l0 -37 7 0 0 37 0 0 -7 0zm19 -45l-1 6 0 0 0 0 0 0 0 0 0 0 0 0 0 0 0 0 0 0 0 0 0 0 0 0 0 0 0 0 0 0 0 0 0 0 0 0 0 0 0 0 0 0 0 0 0 0 0 0 0 0 0 0 0 0 0 0 0 0 0 0 0 0 0 0 0 0 -7 -1 0 0 0 -1 0 0 1 0 0 -1 0 0 0 0 0 0 0 -1 1 0 0 0 0 0 0 0 0 -1 1 0 0 0 0 0 1 0 0 0 0 0 0 -1 1 0 0 0 0 0 1 0 0 0 0 0 1 0 0 0 1 0 0 0 0 0 0 0zm7 6l-8 0 0 0 0 0 0 0 0 0 0 0 0 0 0 0 0 0 0 0 0 0 0 0 0 0 0 0 0 0 0 0 0 0 0 0 0 0 0 0 0 0 0 0 0 0 0 0 0 0 0 0 0 0 0 0 0 0 0 0 0 0 0 0 0 0 0 0 1 -6 1 0 0 0 0 0 1 0 0 0 0 1 1 0 0 0 0 0 1 0 0 0 0 0 1 1 0 0 0 0 0 0 0 0 1 1 0 0 0 0 0 0 0 1 0 0 0 0 1 0 0 1 0 0 0 0 0 0 0 1 0 0 0 0 0 0zm0 0l0 0 0 0 0 0zm-5 42l-7 0 0 0 0 -1 0 -2 0 -1 0 -1 0 -1 0 -2 0 -1 0 -1 0 -2 0 -1 1 -1 0 -2 0 -1 0 -1 0 -2 0 -1 0 -1 1 -2 0 -1 0 -1 0 -2 0 -1 0 -1 1 -2 0 -1 0 -1 0 -2 0 -1 1 -1 0 -2 0 -1 0 -1 8 0 -1 2 0 1 0 1 0 2 -1 1 0 1 0 2 0 1 0 1 -1 2 0 1 0 1 0 2 0 1 0 1 0 1 -1 2 0 1 0 1 0 2 0 1 0 1 0 2 0 1 -1 1 0 1 0 2 0 1 0 1 0 2 0 1 0 1 0 0zm2 40l-8 1 0 0 0 -2 0 -1 0 -1 0 -1 0 -2 -1 -1 0 -1 0 -1 0 -1 0 -2 0 -1 0 -1 0 -2 0 -1 0 -1 0 -1 0 -2 0 -1 0 -1 0 -1 0 -2 -1 -1 0 -1 0 -2 0 -1 0 -1 1 -1 0 -2 0 -1 0 -1 0 -2 0 -1 7 0 0 1 0 2 0 1 0 1 0 2 0 1 0 1 0 1 0 2 0 1 0 1 0 2 0 1 0 1 0 1 0 2 0 1 0 1 0 1 0 2 0 1 0 1 0 1 1 1 0 2 0 1 0 1 0 1 0 1 0 2 0 1 1 1 0 0zm-7 6l-1 -5 0 0 0 0 0 0 0 0 0 0 0 0 0 0 0 0 0 0 0 0 0 0 0 0 0 0 0 0 0 0 0 0 0 0 0 0 0 0 0 0 0 0 0 0 0 0 0 0 0 0 0 0 0 0 0 0 0 0 0 0 0 0 0 0 0 0 8 -1 0 0 0 1 0 0 -1 0 0 0 0 1 0 0 0 0 0 0 0 1 0 0 0 0 -1 0 0 1 0 0 0 0 0 0 -1 0 0 1 0 0 0 0 -1 0 0 0 0 0 -1 1 0 0 0 0 -1 0 0 0 0 0 -1 0 0 0 0 0zm-8 -5l7 0 0 0 0 0 0 0 0 0 0 0 0 0 0 0 0 0 0 0 0 0 0 0 0 0 0 0 0 0 0 0 0 0 0 0 0 0 0 0 0 0 0 0 0 0 0 0 0 0 0 0 0 0 0 0 0 0 0 0 0 0 0 0 0 0 0 0 1 5 0 0 -1 0 0 0 -1 0 0 0 0 0 -1 0 0 0 0 0 -1 0 0 0 0 -1 -1 0 0 0 0 0 0 0 -1 0 0 -1 0 0 0 0 -1 0 0 0 0 -1 0 0 0 0 -1 0 0 -1 0 0 0 0 0 0 0 -1 0 0 0 0zm-2 -41l8 0 0 0 0 1 0 2 0 1 0 1 0 2 0 1 0 1 0 1 0 2 0 1 0 1 0 2 0 1 0 1 0 1 0 2 0 1 0 1 0 2 0 1 0 1 0 1 0 2 0 1 0 1 0 1 1 1 0 2 0 1 0 1 0 1 0 2 -7 0 0 -1 0 -1 0 -2 -1 -1 0 -1 0 -1 0 -2 0 -1 0 -1 0 -1 0 -2 0 -1 0 -1 0 -2 -1 -1 0 -1 0 -1 0 -2 0 -1 0 -1 0 -2 0 -1 0 -1 0 -2 0 -1 0 -1 0 -1 0 -2 0 -1 0 -1 0 -2 0 -1 0 0zm5 -43l7 1 0 0 0 1 0 1 0 2 -1 1 0 1 0 2 0 1 0 1 -1 2 0 1 0 1 0 2 0 1 0 1 -1 2 0 1 0 1 0 2 0 1 0 1 0 2 -1 1 0 1 0 2 0 1 0 1 0 2 0 1 0 1 0 1 0 2 0 1 -8 0 0 -1 1 -2 0 -1 0 -1 0 -2 0 -1 0 -1 0 -2 0 -1 0 -1 0 -2 0 -1 1 -1 0 -2 0 -1 0 -1 0 -2 0 -1 0 -1 1 -2 0 -1 0 -2 0 -1 0 -1 1 -2 0 -1 0 -1 0 -2 0 -1 1 -1 0 -2 0 -1 0 0zm7 1l0 0 1 -1 -1 1zm14 2l0 21 -7 0 0 -21 0 0 7 0zm-1 -8l0 6 3 -1 0 0 0 0 -1 0 0 0 0 0 0 0 0 0 0 0 0 0 0 1 0 0 0 0 0 0 0 0 0 0 0 0 0 0 -1 0 0 0 0 1 0 0 0 0 0 0 0 0 0 0 0 0 0 0 0 0 0 0 0 1 0 0 0 0 -7 0 0 0 0 -1 0 0 0 0 0 0 0 -1 0 0 0 0 0 0 0 -1 0 0 0 0 0 0 1 -1 0 0 0 0 0 0 0 0 0 -1 0 0 1 0 0 0 0 -1 0 0 0 0 0 0 1 0 0 0 0 -1 0 0 0 0 1 0 2 -1zm-2 1l1 -1 1 0 -2 1zm2 5l0 0 0 -6 0 0 3 5 -3 1zm3 -1l-1 1 -2 0 3 -1zm4 -7l0 5 0 0 0 0 -1 0 0 0 0 1 0 0 0 0 0 0 0 0 0 0 -1 0 0 0 0 0 0 0 0 0 0 0 0 0 -1 0 0 0 0 0 0 0 0 0 0 0 0 0 0 0 0 0 -1 0 0 0 0 0 0 1 0 0 0 0 0 0 -5 -4 0 0 0 0 0 -1 1 0 0 0 0 0 0 0 1 0 0 0 0 -1 0 0 1 0 0 0 0 0 0 0 1 0 0 0 0 0 1 -1 0 0 0 0 1 0 0 0 0 0 1 0 0 0 0 0 0 0 1 0 0 0 0 0 1 0 0 0zm30 5l-30 0 0 -5 30 0 0 0 0 5zm10 -2l-6 3 0 1 0 0 0 0 0 0 0 -1 0 0 0 0 0 0 -1 0 0 0 0 0 0 0 0 0 0 0 0 0 0 0 -1 0 0 0 0 0 0 0 0 0 0 0 0 0 0 0 -1 0 0 0 0 0 0 0 0 0 0 -1 0 0 -1 0 0 0 0 -5 1 0 0 0 0 0 1 0 0 0 0 0 1 0 0 0 0 0 1 0 0 0 0 0 0 0 1 1 0 0 0 0 1 0 0 0 0 0 0 0 1 0 0 0 0 0 1 1 0 0 0 0 0 0 1 0 0 0 0 1 0 0 0 0 1 0zm-1 0l1 0 0 0 -1 0zm-5 3l0 0 6 -3 0 0 -6 4 0 -1zm0 1l0 0 0 -1 0 1zm0 0l0 0 5 -4 0 0 0 0 -5 4zm5 -4l0 0 0 0 0 0zm4 7l-7 0 0 0 0 0 0 0 0 -1 0 0 0 0 0 0 0 0 0 0 0 0 0 0 0 0 0 0 0 -1 0 0 0 0 0 0 -1 0 0 0 0 0 0 0 0 0 0 0 0 -1 0 0 0 0 0 0 0 0 0 0 0 0 -1 0 0 0 0 0 5 -4 1 0 0 0 0 0 0 1 1 0 0 0 0 0 0 0 0 0 0 1 1 0 0 0 0 0 0 1 0 0 0 0 0 0 0 0 1 1 0 0 0 0 0 0 0 1 0 0 0 0 0 0 0 1 0 0 0 0 0 0 0 1 0 0 0 0zm-7 22l0 -22 7 0 0 22 0 1 -7 -1zm7 0l0 1 0 0 0 -1zm-7 0l0 0 7 1 0 0 -7 -1 0 0zm0 0l0 0 0 0 0 0zm6 5l-7 -2 0 0 0 0 0 0 0 0 0 0 0 0 1 0 0 0 0 -1 0 0 0 0 0 0 0 0 0 0 0 0 0 0 0 0 0 0 0 0 0 0 0 -1 0 0 0 0 0 0 0 0 0 0 0 0 0 0 0 0 0 0 0 0 0 -1 0 0 7 1 0 0 0 0 0 0 0 0 0 0 0 0 0 1 0 0 0 0 0 0 0 0 0 0 0 0 0 1 0 0 0 0 0 0 0 0 0 0 0 0 0 1 0 0 0 0 0 0 0 0 -1 0 0 0 0 1 0 0 0 0 0 0 0 0 0 0zm0 0l0 0 0 -1 0 1zm-4 4l-5 -4 0 0 0 0 0 0 0 0 1 0 0 0 0 0 0 0 0 0 0 0 0 0 0 0 0 -1 0 0 0 0 0 0 0 0 1 0 0 0 0 0 0 0 0 0 0 0 0 0 0 0 0 0 0 0 0 -1 0 0 0 0 0 0 0 0 0 0 7 2 0 0 0 0 0 1 0 0 0 0 0 0 -1 0 0 0 0 0 0 1 0 0 0 0 0 0 0 0 -1 0 0 0 0 1 0 0 0 0 0 0 0 0 0 0 -1 0 0 0 0 1 0 0 0 0 0 0 -1 0 0 0 0 0 0 0 0 0zm-5 -4l0 0 0 0 0 0zm0 0l0 0 5 4 0 1 0 0 -5 -5zm5 5l0 0 0 0 0 0zm-17 2l12 -7 5 5 -12 7 -5 0 0 -5zm0 5l-4 -3 4 -2 0 5zm13 7l-13 -7 5 -5 12 8 0 0 -4 4zm6 1l0 5 -4 -3 0 0 0 0 0 0 0 -1 0 0 0 0 0 0 0 0 0 -1 0 0 0 0 0 0 0 0 0 0 0 0 0 0 0 0 0 0 0 0 0 0 0 0 0 0 0 0 0 0 -1 0 0 0 0 0 0 0 0 -1 -1 0 0 0 0 0 4 -4 0 0 1 0 0 0 0 0 1 1 0 0 0 0 0 0 1 0 0 0 0 1 1 0 0 0 0 0 0 1 0 0 1 0 0 0 0 1 0 0 0 0 0 1 0 0 0 0 0 0 0 1 0 0 0 0 0 1 0 0 0 0 0 0 -3 -2zm0 5l-4 0 0 -3 4 3zm0 0l0 0 0 -5 0 0 3 2 -3 3zm0 -5l3 0 0 2 -3 -2zm-4 3l0 -1 7 0 0 1 0 0 -7 0zm0 29l0 -29 7 0 0 29 0 0 -7 0zm3 7l-5 -5 0 1 0 0 0 -1 1 0 0 0 0 0 0 0 0 0 0 0 0 0 0 0 0 0 0 0 0 0 0 -1 0 0 1 0 0 0 0 0 0 0 0 0 0 0 0 0 0 0 0 -1 0 0 0 0 0 0 0 0 0 0 0 0 0 0 0 0 7 0 0 0 0 0 0 0 0 1 0 0 0 0 0 0 0 1 0 0 0 0 0 0 0 0 0 1 -1 0 0 0 0 0 0 1 0 0 0 0 0 0 0 0 -1 1 0 0 0 0 0 0 0 0 0 1 -1 0 0 0 0 0 0 0 -1 1 0 0zm0 0l0 0 0 0 0 0zm-5 -4l0 -1 5 5 0 0 -5 -4 0 0zm0 0l0 0 0 0 0 0zm0 0l0 0 6 3 0 0 -1 1 -5 -4zm6 3l0 0 -1 1 1 -1zm-10 3l0 -5 0 0 0 0 1 0 0 0 0 0 0 0 0 0 0 0 0 0 1 0 0 0 0 0 0 0 0 0 0 0 0 0 0 0 1 0 0 -1 0 0 0 0 0 0 0 0 0 0 0 0 1 0 0 0 0 0 0 0 0 0 0 0 0 0 0 0 5 4 0 0 0 0 0 0 0 0 -1 0 0 0 0 1 0 0 -1 0 0 0 0 0 -1 0 0 0 0 0 0 1 -1 0 0 0 0 0 -1 0 0 0 0 0 0 0 -1 0 0 0 0 0 -1 0 0 0 0 0 -1 0 0 0 0 0 -1 0 0 0zm-30 -5l30 0 0 5 -30 0 0 0 0 -5zm-7 3l0 -5 3 1 0 0 0 0 0 0 0 0 0 0 0 0 1 0 0 0 0 0 0 0 0 0 0 0 0 0 0 0 1 1 0 0 0 0 0 0 0 0 0 0 0 0 0 0 1 0 0 0 0 0 0 0 0 0 0 0 0 0 0 0 1 0 0 0 0 5 -1 0 0 0 0 0 -1 0 0 0 0 0 -1 0 0 0 0 0 0 0 -1 0 0 0 0 0 -1 0 0 0 0 0 -1 0 0 -1 0 0 0 0 -1 0 0 0 0 0 0 0 -1 0 0 -1 0 0 0 0 -1 0 0 0 0 0 0 0 2 0zm0 -5l2 0 1 1 -3 -1zm0 0l0 0 0 5 0 0 -2 0 2 -5zm0 5l-1 0 -1 0 2 0zm-6 -7l7 0 0 0 0 0 0 0 0 0 0 0 0 0 0 0 0 0 0 0 0 1 0 0 0 0 0 0 0 0 0 0 1 0 0 0 0 0 0 0 0 1 0 0 0 0 0 0 0 0 0 0 0 0 0 0 0 0 0 0 0 0 1 0 0 1 0 0 -5 4 -1 -1 0 0 0 0 0 0 0 0 -1 -1 0 0 0 0 0 0 0 0 0 -1 -1 0 0 0 0 0 0 0 0 -1 0 0 0 0 -1 0 0 0 0 -1 0 0 0 0 0 0 0 -1 0 0 0 0 0 0 0 -1 0 0 0 0 0 0 0 0zm7 -22l0 22 -7 0 0 -22 3 -3 4 3zm-7 0l0 -3 3 0 -3 3zm15 3l-12 0 0 -6 12 0 4 3 -4 3zm0 -6l4 0 0 3 -4 -3zm-3 23l0 -20 7 0 0 20 -4 3 -3 -3zm3 3l-3 0 0 -3 3 3zm26 0l-26 0 0 -6 26 0 4 3 -4 3zm4 -3l0 3 -4 0 4 -3zm0 -27l0 27 -8 0 0 -27 6 -2 2 2zm-2 -2l2 1 0 1 -2 -2zm-17 -10l17 10 -4 4 -17 -9 2 -5 2 0zm-2 0l1 0 1 0 -2 0zm0 0l0 0 0 5 0 0 -2 0 2 -5zm0 5l-1 0 -1 0 2 0zm-2 0l4 -5 0 0 1 1 0 0 -1 -1 0 0 1 1 0 0 -1 -1 0 0 0 0 -1 0 0 0 2 1 -1 -1 0 0 0 0 0 0 0 0 0 0 0 0 0 0 0 0 0 0 0 0 0 0 0 0 0 0 1 0 -1 0 0 0 0 0 1 0 -1 0 -4 5 0 0 0 0 0 0 0 0 0 -1 0 1 0 0 0 -1 0 1 0 0 0 0 0 0 0 0 0 0 0 0 0 0 0 -1 0 0 0 0 -1 0 1 1 0 0 0 0 0 0 0 0 -1 -1 0 0 1 1 0 0 -1 -1 0 0 1 1 0 0zm4 -5l0 0 0 0 0 0zm-9 -2l8 0 0 0 0 1 0 0 0 0 0 0 0 0 0 0 0 0 0 0 0 0 0 0 0 0 0 0 0 0 0 0 0 0 0 0 0 0 0 0 0 0 0 0 0 0 0 0 0 0 0 1 0 0 0 0 0 0 0 0 1 0 0 0 0 0 0 0 -4 5 0 -1 -1 0 0 0 0 0 0 0 0 0 0 0 -1 0 0 0 0 -1 0 0 -1 0 0 0 0 0 0 0 0 -1 0 0 -1 0 0 0 0 -1 0 0 0 0 0 0 0 0 0 -1 0 0 0 0 0 0 -1 -1 0 0 0 0 0 -1 0 0zm0 0l0 0 0 0 0 0zm5 -6l5 5 -1 0 0 0 0 0 0 0 0 0 -1 0 0 0 0 0 0 0 0 0 0 0 0 0 0 0 0 0 0 0 0 0 0 1 0 0 0 -1 0 0 0 0 0 1 0 0 0 0 0 0 0 0 0 0 0 0 0 0 0 0 0 0 0 0 0 0 -8 0 0 0 0 0 0 0 1 -1 0 0 0 0 0 0 0 -1 0 0 0 0 0 0 0 -1 0 0 0 0 1 0 0 -1 0 0 0 0 0 0 1 0 0 -1 0 0 0 0 1 0 0 0 0 0 0 0 0 0 1 -1 0 0 0 0 0 0 0 0zm5 5l-1 0 0 0 1 0zm0 0l0 0 -5 -5 0 0 5 1 0 4zm0 -4l2 2 -2 2 0 -4zm0 0l0 0 -6 3 0 0 1 -4 5 1zm-6 3l-2 -2 3 -2 -1 4zm22 -9l-17 10 -4 -5 17 -10 6 3 -2 2zm2 -2l-1 1 -1 1 2 -2zm-4 2l0 -5 4 2 0 0 0 0 0 0 0 1 0 0 0 -1 0 0 0 0 0 0 0 0 0 0 0 1 0 0 0 -1 0 0 0 0 0 0 0 1 0 0 0 0 0 0 0 0 0 0 -1 0 1 0 0 0 0 0 0 0 0 0 -1 0 1 0 0 0 -8 -1 0 1 0 -1 0 0 0 1 0 0 0 0 0 0 0 -1 0 0 0 1 0 0 0 0 0 -1 0 0 0 0 0 0 0 0 0 0 0 0 0 0 0 0 0 0 0 0 0 0 0 0 0 0 0 0 0 0 0 0 0 0 0 0 0 0 4 3zm0 -5l4 0 0 2 -4 -2zm0 0l0 0 0 5 0 0 -4 -3 4 -2zm0 5l-4 0 0 -3 4 3zm4 -23l0 20 -8 0 0 -20 4 -3 4 3zm-4 -3l4 0 0 3 -4 -3zm-26 0l26 0 0 5 -26 0 -3 -2 3 -3zm-3 3l0 -3 3 0 -3 3zm0 19l0 -19 7 0 0 19 -4 3 -3 -3zm7 0l0 3 -4 0 4 -3zm-16 -2l12 0 0 5 -12 0 -3 -3 3 -2zm0 5l-3 0 0 -3 3 3zm-62 -25l26 0 0 5 -26 0 -4 -2 4 -3zm-4 3l0 -3 4 0 -4 3zm0 33l0 -33 7 0 0 33 -3 3 -4 -3zm4 3l-4 0 0 -3 4 3zm26 0l-26 0 0 -6 26 0 3 3 -3 3zm3 -3l0 3 -3 0 3 -3zm0 -33l0 33 -7 0 0 -33 4 -3 3 3zm-3 -3l3 0 0 3 -3 -3z"/>
    <path id="1" class="fil3" d="M126 154l0 42c0,2 -1,3 -2,5l-1 0c-1,1 -4,2 -6,2l-31 0c-2,0 -4,-1 -6,-2l0 0c-2,-2 -3,-3 -3,-5l0 -22 12 0 0 20 26 0 0 -33 -29 0c-2,0 -4,-1 -6,-2l0 0c-2,-1 -3,-3 -3,-5l0 -37c0,-2 1,-4 3,-5 2,-1 4,-2 6,-2l31 0c2,0 5,1 7,2l0 0c1,1 2,3 2,5l0 37zm12 -40c0,-1 2,-2 4,-2 2,0 3,1 3,3 -3,14 -4,28 -5,42 0,14 0,28 2,40 0,2 -1,3 -3,3 -2,0 -4,-1 -4,-2 -2,-13 -2,-27 -2,-41 1,-14 2,-28 5,-43zm13 24l0 -21c0,-2 2,-4 3,-5l0 0c2,-1 4,-2 7,-2l30 0c3,0 5,1 7,2l0 0 0 0c2,1 3,3 3,5l0 22 0 0c0,2 -1,3 -1,4 -1,1 -2,2 -3,3l-1 0 -12 7 13 8c4,2 4,2 4,5l0 0 0 1 0 29c0,2 -1,3 -3,5l0 0 0 0c-2,1 -4,2 -7,2l-30 0c-3,0 -5,-1 -7,-2l0 0c-1,-2 -3,-3 -3,-5l0 -22 12 0 0 20 26 0 0 -27 -17 -10 0 0c0,0 0,0 0,0 -2,-1 -3,-1 -3,-4 0,-2 1,-2 3,-4l0 0 0 0 17 -9c0,0 0,-1 0,-1l0 0 0 -20 -26 0 0 19 -12 0zm-36 -19l-26 0 0 33 26 0 0 -33z"/>
   </g>
   <g>
    <path class="fil4" d="M124 196l0 -42 4 0 0 42 0 0 -4 0zm1 6l-3 -3 0 0 0 0 0 0 0 0 0 0 1 0 0 0 0 0 0 0 0 -1 0 0 0 0 0 0 0 0 0 0 0 0 0 0 1 0 0 -1 0 0 0 0 0 0 0 0 0 0 0 0 0 0 0 -1 0 0 0 0 0 0 0 0 0 0 0 0 4 0 0 0 0 0 0 0 0 0 0 1 0 0 0 0 0 0 0 1 0 0 0 0 0 0 0 0 0 1 0 0 0 0 -1 0 0 0 0 1 0 0 0 0 0 0 0 0 -1 0 0 1 0 0 0 0 0 0 0 0 -1 0 0 1 0 0 0 0zm0 0l0 0 0 0 0 0zm-3 -3l0 0 3 3 0 0 -3 -3 0 0zm0 0l0 0 0 0 0 0zm-5 5l0 -3 0 0 0 0 0 0 0 0 1 0 0 0 0 0 0 0 0 0 1 0 0 0 0 0 0 0 0 0 0 0 1 0 0 0 0 0 0 -1 0 0 0 0 0 0 1 0 0 0 0 0 0 0 0 0 0 0 0 0 1 0 0 0 0 0 0 -1 3 3 0 0 0 0 -1 0 0 0 0 0 0 1 0 0 -1 0 0 0 0 0 0 0 -1 0 0 0 0 0 0 1 -1 0 0 0 0 0 0 0 -1 0 0 0 0 0 0 0 -1 0 0 0 0 0 -1 0 0 0 0 0 -1 0 0 0 0 0 0 0zm-31 -3l31 0 0 3 -31 0 0 0 0 -3zm-6 1l0 -3 1 0 1 1 0 0 0 0 0 0 0 0 0 0 0 0 0 0 1 0 0 0 0 0 0 0 0 0 0 0 1 1 0 0 0 0 0 0 0 0 0 0 0 0 1 0 0 0 0 0 0 0 0 0 1 0 0 0 0 0 0 0 0 0 0 0 0 3 0 0 0 0 0 0 -1 0 0 0 0 0 -1 0 0 0 0 0 0 0 -1 0 0 0 0 0 -1 0 0 0 0 0 0 0 -1 -1 0 0 0 0 0 0 -1 0 0 0 0 0 0 0 0 0 -1 -1 0 0 0 0 0 0 -1 0 0 0 2 0zm0 -3l1 0 0 0 -1 0zm0 0l0 0 0 3 0 0 -2 0 2 -3zm0 3l-1 0 -1 0 2 0zm-5 -6l4 0 0 0 0 0 0 0 0 0 0 0 0 0 0 0 0 1 0 0 0 0 1 0 0 0 0 0 0 0 0 0 0 1 0 0 0 0 0 0 0 0 0 0 0 0 0 0 0 1 1 0 0 0 0 0 0 0 0 0 0 0 0 0 0 0 0 0 -3 3 0 0 0 -1 0 0 0 0 -1 0 0 0 0 0 0 -1 0 0 0 0 -1 0 0 0 0 0 0 -1 0 0 0 0 0 0 0 0 0 -1 -1 0 0 0 0 0 0 0 0 -1 0 0 0 0 0 0 0 -1 0 0 0 0 0 0 0 0 0 0zm4 -22l0 22 -4 0 0 -22 2 -2 2 2zm-4 0l0 -2 2 0 -2 2zm14 2l-12 0 0 -4 12 0 2 2 -2 2zm0 -4l2 0 0 2 -2 -2zm-2 22l0 -20 4 0 0 20 -2 1 -2 -1zm2 1l-2 0 0 -1 2 1zm26 0l-26 0 0 -3 26 0 2 2 -2 1zm2 -1l0 1 -2 0 2 -1zm0 -33l0 33 -5 0 0 -33 3 -2 2 2zm-2 -2l2 0 0 2 -2 -2zm-29 0l29 0 0 4 -29 0 0 0 0 -4zm-6 1l0 -3 1 1 1 0 0 0 0 0 0 0 0 0 0 0 0 0 0 0 1 0 0 0 0 1 0 0 0 0 0 0 1 0 0 0 0 0 0 0 0 0 0 0 0 0 1 0 0 0 0 0 0 0 0 0 1 0 0 0 0 0 0 0 0 0 0 0 0 4 0 0 0 0 0 0 -1 0 0 -1 0 0 -1 0 0 0 0 0 0 0 -1 0 0 0 0 0 -1 0 0 0 0 0 0 0 -1 0 0 0 0 -1 0 0 -1 0 0 0 0 0 0 0 0 0 -1 0 0 0 0 -1 0 0 -1 0 0 0 2 0zm0 -3l1 0 0 1 -1 -1zm0 0l0 0 0 3 0 0 -2 0 2 -3zm0 3l-1 0 -1 0 2 0zm-5 -6l4 0 0 0 0 0 0 0 0 0 0 0 0 1 0 0 0 0 0 0 0 0 1 0 0 0 0 0 0 1 0 0 0 0 0 0 0 0 0 0 0 0 0 0 0 1 0 0 0 0 0 0 1 0 0 0 0 0 0 0 0 0 0 0 0 1 0 0 -3 2 0 0 0 0 0 0 0 -1 -1 0 0 0 0 0 0 0 0 0 0 -1 -1 0 0 0 0 0 0 0 0 -1 0 0 0 0 0 0 0 0 -1 -1 0 0 0 0 0 0 0 0 0 -1 0 0 0 0 0 0 0 0 0 -1 0 0 0 0 0 0zm4 -37l0 37 -4 0 0 -37 0 0 4 0zm-1 -6l3 2 0 0 0 0 0 0 0 0 0 0 0 0 0 1 0 0 -1 0 0 0 0 0 0 0 0 0 0 0 0 0 0 1 0 0 0 0 0 0 0 0 0 0 0 0 0 0 -1 1 0 0 0 0 0 0 0 0 0 0 0 0 0 0 0 1 0 0 -4 0 0 0 0 -1 0 0 0 0 0 0 0 -1 0 0 0 0 0 0 0 0 0 -1 0 0 1 0 0 0 0 0 0 -1 0 0 0 0 0 0 0 0 0 -1 1 0 0 0 0 0 0 0 0 0 0 -1 1 0 0 0 0 0 0 0 0 0 0 0zm0 0l0 0 0 0 0 0zm8 -3l0 3 0 0 0 0 0 0 0 0 0 0 0 0 -1 0 0 0 0 0 0 1 0 0 -1 0 0 0 0 0 0 0 0 0 0 0 -1 0 0 0 0 0 0 0 0 0 0 0 0 0 -1 0 0 0 0 0 0 1 0 0 0 0 0 0 -1 0 0 0 -3 -2 0 -1 1 0 0 0 0 0 0 0 1 0 0 0 0 0 0 -1 0 0 1 0 0 0 0 0 0 0 1 0 0 0 0 0 0 0 1 0 0 -1 0 0 1 0 0 0 0 0 0 0 1 0 0 0 0 0 1 0 0 0 0 0 0 0 0 0zm31 3l-31 0 0 -3 31 0 0 0 0 3zm9 1l-5 0 1 1 0 0 0 0 0 0 -1 0 0 0 0 -1 0 0 0 0 0 0 0 0 -1 0 0 0 0 0 0 0 0 0 0 0 0 0 -1 0 0 0 0 0 0 0 0 0 0 0 -1 -1 0 0 0 0 0 0 0 0 -1 0 0 0 0 0 0 0 0 -3 0 0 0 0 1 0 0 0 0 0 1 0 0 0 0 0 1 0 0 0 0 0 0 0 1 1 0 0 0 0 0 0 1 0 0 0 0 0 0 0 1 0 0 0 0 0 0 1 1 0 0 0 0 0 0 0 0 0 1 0 0 0 0 1 1 1zm-1 -1l1 0 0 1 -1 -1zm-4 1l0 0 5 0 0 0 -4 1 -1 -1zm1 1l-1 -1 0 0 1 1zm6 4l-4 0 0 0 0 0 0 -1 0 0 0 0 0 0 0 0 0 0 0 0 0 0 0 -1 0 0 0 0 0 0 0 0 0 0 -1 0 0 0 0 -1 0 0 0 0 0 0 0 0 0 0 0 0 0 0 0 0 0 -1 -1 0 0 0 0 0 0 0 0 0 3 -2 0 0 0 0 1 0 0 0 0 0 0 1 0 0 0 0 1 0 0 0 0 0 0 1 0 0 0 0 0 0 1 0 0 1 0 0 0 0 0 0 0 0 0 1 0 0 0 0 0 0 0 0 0 1 0 0 0 0 0 0 0 1 0 0 0 0zm-4 37l0 -37 4 0 0 37 0 0 -4 0zm18 -44l0 3 0 0 -1 0 0 0 0 0 0 0 0 0 0 0 0 0 0 0 0 0 0 1 0 0 0 0 0 0 0 0 0 0 0 0 -1 0 0 0 0 0 0 0 0 0 0 0 0 0 0 0 0 0 0 0 0 0 0 0 0 0 0 0 0 0 0 0 -4 0 0 0 0 0 0 -1 0 0 0 0 0 0 0 -1 0 0 1 0 0 0 0 0 0 0 0 -1 0 0 1 0 0 0 0 0 0 0 1 0 0 0 0 -1 0 0 1 0 0 0 0 0 0 0 1 0 0 0 0 0 1 0 0 0 0 0 0 0zm5 5l-4 0 0 0 0 0 0 0 0 0 0 -1 0 0 0 0 0 0 0 0 0 0 0 0 0 0 0 0 0 0 0 0 0 0 0 0 0 0 -1 0 0 0 0 0 0 0 0 0 0 0 0 0 0 0 0 0 0 0 0 -1 0 0 0 0 0 0 0 0 0 -3 0 0 1 0 0 0 0 0 1 0 0 1 0 0 0 0 1 0 0 0 0 0 0 0 0 0 1 1 0 0 0 0 0 0 0 0 0 0 1 1 0 0 0 0 0 0 0 0 0 1 0 0 0 0 0 0 0 0 0 1 0 0 0 0 0 0zm0 0l0 0 0 -1 0 1zm-4 42l-5 0 0 0 0 -1 0 -2 0 -1 0 -1 0 -1 1 -2 0 -1 0 -1 0 -2 0 -1 0 -1 0 -2 0 -1 0 -1 1 -2 0 -1 0 -1 0 -2 0 -1 0 -1 0 -2 1 -1 0 -1 0 -2 0 -1 0 -1 1 -2 0 -1 0 -1 0 -2 1 -1 0 -1 4 0 0 1 0 2 -1 1 0 1 0 2 0 1 0 1 -1 2 0 1 0 1 0 2 0 1 0 1 -1 2 0 1 0 1 0 2 0 1 0 1 0 2 -1 1 0 1 0 2 0 1 0 1 0 1 0 2 0 1 0 1 0 2 0 1 0 1 0 0zm1 40l-4 0 0 0 0 -1 -1 -1 0 -1 0 -1 0 -2 0 -1 0 -1 0 -1 0 -2 0 -1 -1 -1 0 -1 0 -2 0 -1 0 -1 0 -1 0 -2 0 -1 0 -1 0 -1 0 -2 0 -1 0 -1 0 -2 0 -1 0 -1 0 -1 0 -2 0 -1 0 -1 0 -2 0 -1 5 0 -1 1 0 2 0 1 0 1 0 2 0 1 0 1 0 1 0 2 0 1 0 1 0 2 0 1 0 1 0 1 1 2 0 1 0 1 0 1 0 2 0 1 0 1 0 1 0 1 0 2 0 1 0 1 1 1 0 2 0 1 0 1 0 1 0 0zm-5 5l-1 -3 0 0 0 0 1 0 0 0 0 0 0 0 0 0 0 0 0 0 0 0 0 -1 0 0 0 0 0 0 0 0 0 0 0 0 0 0 0 0 0 0 1 0 0 0 0 0 0 0 0 0 0 0 0 0 0 0 0 0 0 0 0 0 0 0 0 -1 4 0 0 0 0 1 0 0 0 0 0 0 0 0 0 1 0 0 0 0 0 0 -1 1 0 0 0 0 0 0 0 0 0 0 0 1 -1 0 0 0 0 0 0 0 -1 0 0 0 0 0 0 1 -1 0 0 0 0 0 0 0 -1 0 0 0 0 0 0 0zm-7 -4l5 0 0 0 0 0 0 0 0 0 0 0 0 0 0 0 0 0 0 0 0 0 0 0 0 0 0 0 0 0 0 0 0 0 0 0 0 0 0 0 0 0 1 1 0 0 0 0 0 0 0 0 0 0 0 0 0 0 0 0 0 0 0 0 0 0 0 0 1 3 -1 0 0 0 0 0 0 0 -1 0 0 0 0 0 -1 0 0 0 0 0 0 0 -1 -1 0 0 0 0 0 0 0 0 -1 0 0 0 0 0 0 -1 0 0 -1 0 0 0 0 0 0 -1 0 0 0 0 0 0 0 0 0 -1 -1 0 0 0 0 0zm-1 -41l4 0 0 0 0 1 0 2 0 1 0 1 0 2 0 1 0 1 0 1 0 2 0 1 0 1 0 2 0 1 0 1 0 1 0 2 0 1 0 1 0 2 0 1 1 1 0 1 0 2 0 1 0 1 0 1 0 2 0 1 0 1 1 1 0 1 0 2 -5 0 0 -1 0 -2 0 -1 0 -1 0 -1 0 -1 0 -2 -1 -1 0 -1 0 -2 0 -1 0 -1 0 -1 0 -2 0 -1 0 -1 0 -1 0 -2 0 -1 0 -1 0 -2 0 -1 0 -1 0 -2 0 -1 0 -1 0 -1 0 -2 0 -1 0 -1 0 -2 0 -1 0 0zm5 -43l4 0 0 0 0 2 -1 1 0 1 0 2 0 1 0 2 -1 1 0 1 0 2 0 1 0 1 -1 2 0 1 0 1 0 2 0 1 0 1 0 2 -1 1 0 1 0 2 0 1 0 1 0 2 0 1 0 1 0 1 -1 2 0 1 0 1 0 2 0 1 -4 0 0 -1 0 -2 0 -1 0 -1 0 -2 0 -1 0 -1 0 -2 1 -1 0 -1 0 -2 0 -1 0 -1 0 -2 0 -1 0 -1 1 -2 0 -1 0 -1 0 -2 0 -1 0 -1 1 -2 0 -1 0 -2 0 -1 0 -1 1 -2 0 -1 0 -1 0 -2 1 -1 0 0zm4 0l0 0 0 0 0 0zm14 3l0 21 -5 0 0 -21 0 0 5 0zm0 -7l0 3 2 0 0 0 0 0 -1 0 0 0 0 0 0 1 0 0 0 0 0 0 0 0 0 0 0 0 -1 0 0 0 0 1 0 0 0 0 0 0 0 0 0 0 0 0 0 0 0 1 0 0 0 0 0 0 0 0 0 0 0 0 0 0 0 1 0 0 -5 0 0 0 0 -1 0 0 0 0 0 0 0 -1 0 0 1 0 0 0 0 0 0 -1 0 0 0 0 0 0 0 0 0 -1 0 0 0 0 1 0 0 0 0 -1 0 0 0 0 0 0 0 0 1 0 0 -1 0 0 0 0 0 0 0 0 1 0 1 -1zm-1 1l0 -1 1 0 -1 1zm1 2l0 0 0 -3 0 0 2 3 -2 0zm2 0l-1 0 -1 0 2 0zm5 -5l0 3 0 0 0 0 -1 0 0 0 0 0 0 0 0 0 0 0 -1 0 0 1 0 0 0 0 0 0 0 0 -1 0 0 0 0 0 0 0 0 0 0 0 -1 0 0 0 0 0 0 0 0 0 0 0 0 0 -1 1 0 0 0 0 0 0 0 0 0 0 -3 -2 0 -1 0 0 0 0 0 0 1 0 0 0 0 0 0 0 1 -1 0 0 0 0 0 0 1 0 0 0 0 0 0 0 1 0 0 0 0 0 0 -1 1 0 0 0 0 0 0 0 1 0 0 0 0 0 1 0 0 0 0 0 0 0 1 0 0 0zm30 3l-30 0 0 -3 30 0 0 0 0 3zm9 0l-4 2 0 0 0 0 0 0 0 0 0 0 0 0 0 -1 -1 0 0 0 0 0 0 0 0 0 0 0 -1 0 0 0 0 0 0 0 0 0 0 0 0 0 -1 0 0 0 0 0 0 0 0 -1 0 0 -1 0 0 0 0 0 0 0 0 0 -1 0 0 0 0 -3 1 0 0 0 0 0 0 0 1 0 0 0 0 0 1 0 0 0 0 0 0 0 1 0 0 1 0 0 0 0 1 0 0 0 0 0 1 0 0 0 0 0 0 0 0 0 1 1 0 0 0 0 0 0 1 0 0 0 0 0 0 0 0 1 1 0zm-1 0l1 0 0 0 -1 0zm-3 2l0 0 4 -2 0 0 -4 2 0 0zm0 0l0 0 0 0 0 0zm0 0l0 0 3 -2 0 0 0 0 -3 2zm3 -2l0 0 0 0 0 0zm4 6l-5 0 0 0 0 0 0 -1 0 0 0 0 0 0 0 0 0 0 0 0 0 0 0 -1 0 0 0 0 0 0 0 0 0 0 0 0 0 0 0 -1 0 0 0 0 -1 0 0 0 0 0 0 0 0 0 0 0 0 -1 0 0 0 0 0 0 -1 0 0 0 3 -2 1 0 0 0 0 0 0 0 0 0 1 1 0 0 0 0 0 0 0 0 0 0 0 1 1 0 0 0 0 0 0 0 0 1 0 0 0 0 0 0 0 0 0 1 1 0 0 0 0 0 0 0 0 1 0 0 0 0 0 0 0 1 0 0 0 0zm-5 22l0 -22 5 0 0 22 0 1 -5 -1zm5 0l0 0 0 1 0 -1zm-5 0l0 0 5 1 0 0 -5 -1 0 0zm0 0l0 0 0 0 0 0zm4 5l-4 -2 0 0 0 0 0 0 0 0 0 0 0 0 0 0 0 0 0 0 0 0 0 0 0 -1 0 0 0 0 0 0 0 0 0 0 0 0 0 0 0 0 0 0 0 0 0 -1 0 0 0 0 0 0 0 0 0 0 0 0 0 0 0 0 0 0 0 -1 5 0 0 1 0 0 0 0 0 0 0 0 0 0 0 0 0 1 0 0 0 0 0 0 0 0 0 0 0 0 0 1 0 0 -1 0 0 0 0 0 0 0 0 0 0 0 0 1 0 0 0 0 0 0 0 0 0 0 0 0 0 0 0 1 0 0 0 0zm0 0l0 0 0 -1 0 1zm-4 4l-3 -3 0 0 0 0 0 0 0 0 1 0 0 0 0 0 0 0 0 -1 0 0 0 0 0 0 0 0 0 0 0 0 1 0 0 0 0 0 0 0 0 0 0 0 0 -1 0 0 0 0 0 0 0 0 0 0 0 0 0 0 1 0 0 0 0 0 0 -1 4 2 0 0 0 0 0 0 -1 0 0 0 0 0 0 1 0 0 0 0 0 0 0 0 0 0 0 0 -1 1 0 0 0 0 0 0 0 0 0 0 0 0 0 0 -1 1 0 0 0 0 0 0 0 0 0 0 0 0 -1 0 0 0 0 0 0 1 0 0zm-3 -3l0 0 0 0 0 0zm0 0l0 0 3 3 0 0 0 0 -3 -3zm3 3l0 0 0 0 0 0zm-15 4l12 -7 3 3 -12 7 -3 0 0 -3zm0 3l-2 -2 2 -1 0 3zm13 7l-13 -7 3 -3 12 7 0 0 -2 3zm5 3l0 3 -3 -2 0 0 0 0 0 0 0 -1 0 0 0 0 0 0 0 0 0 -1 0 0 0 0 0 0 0 0 0 0 0 0 0 0 0 0 0 0 0 0 0 0 0 0 0 -1 0 0 0 0 -1 0 0 0 0 0 0 0 -1 0 0 -1 0 0 0 0 2 -3 1 1 0 0 0 0 0 0 1 0 0 1 0 0 1 0 0 0 0 0 0 0 0 1 1 0 0 0 0 0 0 0 0 1 0 0 0 0 1 0 0 1 0 0 0 0 0 0 0 0 0 1 0 0 0 0 0 1 0 0 0 0 0 0 -2 -1zm0 3l-3 0 0 -2 3 2zm0 0l0 0 0 -3 0 0 2 1 -2 2zm0 -3l2 0 0 1 -2 -1zm-3 2l0 -1 5 0 0 1 0 0 -5 0zm0 29l0 -29 5 0 0 29 0 0 -5 0zm1 6l-3 -3 0 0 0 0 1 0 0 0 0 0 0 0 0 0 0 0 0 0 0 -1 0 0 0 0 1 0 0 0 0 0 0 0 0 0 0 0 0 -1 0 0 0 0 0 0 0 0 0 0 0 0 0 0 0 -1 0 0 0 0 0 0 0 0 0 0 0 0 5 0 0 0 0 0 0 0 0 0 0 1 0 0 0 0 0 0 0 1 -1 0 0 0 0 0 0 0 0 1 0 0 0 0 0 0 0 0 0 1 -1 0 0 0 0 0 0 0 0 0 0 1 0 0 -1 0 0 0 0 0 0 0 0 1 -1 0 0 0zm0 0l0 0 0 0 0 0zm-3 -3l0 0 3 3 0 0 -3 -2 0 -1zm0 1l0 -1 0 0 0 1zm0 0l0 0 4 2 0 0 -1 0 -3 -2zm4 2l0 0 -1 0 1 0zm-9 2l0 -3 0 0 0 0 1 0 0 0 0 0 0 0 0 0 1 0 0 0 0 0 0 0 0 0 0 0 1 0 0 0 0 0 0 0 0 0 0 -1 0 0 1 0 0 0 0 0 0 0 0 0 0 0 1 0 0 0 0 0 0 0 0 0 0 -1 0 0 3 3 0 0 0 0 0 0 0 0 -1 0 0 1 0 0 0 0 -1 0 0 0 0 0 0 0 0 0 -1 0 0 1 0 0 -1 0 0 0 0 0 0 0 -1 0 0 0 0 0 0 0 -1 0 0 0 0 0 -1 0 0 0 0 0 0 0 -1 0 0 0zm-30 -3l30 0 0 3 -30 0 0 0 0 -3zm-7 1l0 -3 2 0 0 1 0 0 0 0 0 0 0 0 1 0 0 0 0 0 0 0 0 0 0 0 0 0 1 0 0 0 0 1 0 0 0 0 0 0 1 0 0 0 0 0 0 0 0 0 0 0 1 0 0 0 0 0 0 0 0 0 0 0 1 0 0 0 0 3 -1 0 0 0 0 0 0 0 -1 0 0 0 0 0 -1 0 0 0 0 0 0 0 -1 0 0 0 0 0 0 0 -1 0 0 0 0 -1 0 0 -1 0 0 0 0 0 0 0 -1 0 0 0 0 0 0 -1 -1 0 0 0 0 0 0 0 0 0 1 0zm0 -3l1 0 1 0 -2 0zm0 0l0 0 0 3 0 0 -1 0 1 -3zm0 3l-1 0 0 0 1 0zm-5 -6l5 0 0 0 0 0 0 0 0 0 0 0 0 0 0 0 0 1 0 0 0 0 0 0 0 0 0 0 0 0 0 0 0 1 0 0 0 0 0 0 0 0 1 0 0 0 0 0 0 1 0 0 0 0 0 0 0 0 0 0 0 0 1 0 0 0 0 0 -3 3 -1 0 0 -1 0 0 0 0 0 0 0 0 -1 0 0 -1 0 0 0 0 0 0 0 0 0 0 -1 -1 0 0 0 0 0 0 0 0 0 -1 0 0 0 0 0 0 0 0 0 -1 -1 0 0 0 0 0 0 -1 0 0 0 0 0 0 0 0 0 0zm5 -22l0 22 -5 0 0 -22 2 -2 3 2zm-5 0l0 -2 2 0 -2 2zm14 2l-12 0 0 -4 12 0 2 2 -2 2zm0 -4l2 0 0 2 -2 -2zm-2 22l0 -20 4 0 0 20 -2 1 -2 -1zm2 1l-2 0 0 -1 2 1zm26 0l-26 0 0 -3 26 0 2 2 -2 1zm2 -1l0 1 -2 0 2 -1zm0 -27l0 27 -4 0 0 -27 3 -1 1 1zm-1 -1l1 0 0 1 -1 -1zm-16 -10l16 10 -2 3 -17 -10 1 -3 2 0zm-2 0l1 0 1 0 -2 0zm0 0l0 0 0 3 0 0 -1 0 1 -3zm0 3l-1 0 0 0 1 0zm-1 0l2 -3 0 0 1 0 0 0 -1 0 0 0 1 0 0 0 -1 0 0 0 0 0 0 0 0 0 1 0 -1 0 0 0 0 0 0 0 0 0 0 0 0 0 0 0 0 0 0 0 0 0 1 0 -1 0 0 0 1 0 0 0 -1 0 0 0 1 0 0 0 -3 3 0 0 0 0 0 0 0 0 0 0 0 0 0 0 0 0 0 0 0 0 0 0 0 0 0 0 0 0 0 0 0 0 0 0 0 0 0 0 -1 -1 1 1 0 0 0 0 0 0 0 0 -1 -1 0 0 1 1 0 0 -1 -1 0 0 1 1 0 0zm2 -3l0 0 0 0 0 0zm-6 -3l4 0 0 0 0 1 0 0 0 0 0 0 0 0 0 0 0 0 0 1 0 0 0 0 1 0 0 0 0 0 0 0 0 0 0 0 0 0 0 0 0 0 0 0 0 0 0 0 0 0 0 0 0 0 0 0 0 1 1 0 0 0 0 0 0 0 0 0 -2 3 -1 0 0 -1 0 0 0 0 0 0 0 0 -1 0 0 0 0 0 0 0 0 0 0 -1 -1 0 0 0 0 0 0 0 0 0 0 -1 0 0 -1 0 0 0 0 0 0 -1 0 0 0 0 0 0 0 0 0 -1 0 0 0 0 0 0 0 -1 0 0zm0 0l0 0 0 0 0 0zm4 -5l3 3 -1 0 0 0 0 0 0 0 0 0 0 0 -1 0 0 0 0 0 0 1 0 0 0 0 0 0 0 0 0 0 0 0 0 0 0 0 0 0 0 0 0 0 0 0 -1 0 0 0 0 0 0 0 0 1 0 0 0 0 0 0 0 0 0 0 0 0 -4 0 0 0 0 0 0 0 0 -1 0 0 0 0 0 0 0 0 0 -1 0 0 0 0 1 0 0 0 0 -1 0 0 0 0 0 0 0 0 1 0 0 -1 0 0 0 0 0 0 0 0 1 0 0 0 0 0 0 -1 0 0 1 0 0 0 0 0 0 0zm3 3l0 0 -1 0 1 0zm0 0l0 0 -3 -3 0 0 3 0 0 3zm0 -3l1 2 -1 1 0 -3zm0 0l0 0 -4 2 0 0 1 -2 3 0zm-4 2l-1 -1 2 -1 -1 2zm20 -9l-16 10 -3 -3 17 -10 3 2 -1 1zm1 -1l0 0 -1 1 1 -1zm-2 1l0 -3 2 1 0 0 0 0 0 0 0 1 0 0 0 -1 0 0 0 0 0 0 0 0 0 0 0 1 0 0 0 -1 0 0 0 0 0 0 0 1 0 0 0 0 0 0 0 0 0 0 0 0 0 0 0 0 0 0 0 0 0 0 0 0 0 0 0 0 -4 -1 0 1 0 -1 0 0 0 1 0 0 0 0 0 0 0 -1 0 0 0 1 0 0 0 0 0 -1 0 0 0 0 0 0 0 0 0 0 0 0 0 0 0 0 0 0 0 0 0 0 0 0 0 0 0 0 0 0 0 0 0 0 0 0 0 0 2 2zm0 -3l2 0 0 1 -2 -1zm0 0l0 0 0 3 0 0 -2 -2 2 -1zm0 3l-2 0 0 -2 2 2zm2 -22l0 20 -4 0 0 -20 2 -2 2 2zm-2 -2l2 0 0 2 -2 -2zm-26 0l26 0 0 3 -26 0 -2 -1 2 -2zm-2 2l0 -2 2 0 -2 2zm0 19l0 -19 4 0 0 19 -2 2 -2 -2zm4 0l0 2 -2 0 2 -2zm-14 -1l12 0 0 3 -12 0 -2 -2 2 -1zm0 3l-2 0 0 -2 2 2zm-62 -23l26 0 0 3 -26 0 -2 -1 2 -2zm-2 2l0 -2 2 0 -2 2zm0 33l0 -33 4 0 0 33 -2 2 -2 -2zm2 2l-2 0 0 -2 2 2zm26 0l-26 0 0 -4 26 0 2 2 -2 2zm2 -2l0 2 -2 0 2 -2zm0 -33l0 33 -5 0 0 -33 3 -2 2 2zm-2 -2l2 0 0 2 -2 -2z"/>
    <path id="1" class="fil5" d="M126 154l0 42c0,2 -1,3 -2,5l-1 0c-1,1 -4,2 -6,2l-31 0c-2,0 -4,-1 -6,-2l0 0c-2,-2 -3,-3 -3,-5l0 -22 12 0 0 20 26 0 0 -33 -29 0c-2,0 -4,-1 -6,-2l0 0c-2,-1 -3,-3 -3,-5l0 -37c0,-2 1,-4 3,-5 2,-1 4,-2 6,-2l31 0c2,0 5,1 7,2l0 0c1,1 2,3 2,5l0 37zm12 -40c0,-1 2,-2 4,-2 2,0 3,1 3,3 -3,14 -4,28 -5,42 0,14 0,28 2,40 0,2 -1,3 -3,3 -2,0 -4,-1 -4,-2 -2,-13 -2,-27 -2,-41 1,-14 2,-28 5,-43zm13 24l0 -21c0,-2 2,-4 3,-5l0 0c2,-1 4,-2 7,-2l30 0c3,0 5,1 7,2l0 0 0 0c2,1 3,3 3,5l0 22 0 0c0,2 -1,3 -1,4 -1,1 -2,2 -3,3l-1 0 -12 7 13 8c4,2 4,2 4,5l0 0 0 1 0 29c0,2 -1,3 -3,5l0 0 0 0c-2,1 -4,2 -7,2l-30 0c-3,0 -5,-1 -7,-2l0 0c-1,-2 -3,-3 -3,-5l0 -22 12 0 0 20 26 0 0 -27 -17 -10 0 0c0,0 0,0 0,0 -2,-1 -3,-1 -3,-4 0,-2 1,-2 3,-4l0 0 0 0 17 -9c0,0 0,-1 0,-1l0 0 0 -20 -26 0 0 19 -12 0zm-36 -19l-26 0 0 33 26 0 0 -33z"/>
   </g>
   <path class="fil6" d="M215 205l0 -18c0,-4 1,-7 3,-8 2,-2 4,-3 8,-3 3,0 6,1 8,3 2,2 3,5 3,9l0 6 13 0 0 11 -35 0zm15 -11l0 -3c0,-2 0,-3 -1,-4 -1,-1 -2,-1 -3,-1 -1,0 -2,0 -3,1 0,1 -1,2 -1,4l0 3 8 0zm14 -41l0 12 6 2 0 11 -35 -13 0 -12 35 -12 0 11 -6 1zm-7 3l-13 3 13 4 0 -7zm-22 -11l0 -12 12 -7 -12 -7 0 -11 20 13 15 0 0 11 -15 0 -20 13z"/>
   <polygon class="fil1" points="180,234 156,234 156,260 180,260 "/>
   <polygon class="fil0" points="110,234 86,234 86,260 110,260 "/>
   <polygon class="fil0" points="124,272 132,272 132,263 124,263 "/>
   <polygon class="fil0" points="98,286 106,286 106,277 98,277 "/>
   <polygon class="fil0" points="86,272 77,272 77,263 86,263 "/>
   <polygon class="fil0" points="53,272 62,272 62,263 53,263 "/>
   <polygon class="fil1" points="91,286 83,286 83,277 91,277 "/>
   <polygon class="fil1" points="141,286 156,286 156,270 141,270 "/>
   <polygon class="fil0" points="37,234 0,234 0,271 37,271 "/>
   <polygon class="fil1" points="297,234 273,234 273,260 297,260 "/>
   <polygon class="fil0" points="227,234 203,234 203,260 227,260 "/>
   <polygon class="fil0" points="251,260 227,260 227,286 251,286 "/>
   <polygon class="fil0" points="306,269 297,269 297,260 306,260 "/>
   <polygon class="fil0" points="275,284 283,284 283,275 275,275 "/>
   <polygon class="fil1" points="314,284 323,284 323,275 314,275 "/>
   <polygon class="fil1" points="215,52 239,52 239,26 215,26 "/>
   <polygon class="fil0" points="285,52 309,52 309,26 285,26 "/>
   <polygon class="fil0" points="271,14 263,14 263,23 271,23 "/>
   <polygon class="fil0" points="298,0 289,0 289,9 298,9 "/>
   <polygon class="fil0" points="309,14 318,14 318,23 309,23 "/>
   <polygon class="fil1" points="304,0 312,0 312,9 304,9 "/>
   <polygon class="fil1" points="254,0 239,0 239,16 254,16 "/>
   <polygon class="fil1" points="98,52 122,52 122,26 98,26 "/>
   <polygon class="fil0" points="168,52 193,52 193,26 168,26 "/>
   <polygon class="fil0" points="144,26 168,26 168,0 144,0 "/>
   <polygon class="fil0" points="90,17 98,17 98,26 90,26 "/>
   <polygon class="fil0" points="120,2 112,2 112,12 120,12 "/>
   <polygon class="fil1" points="81,2 72,2 72,12 81,12 "/>
  </g>
 </g>
</svg>
