<?xml version="1.0" encoding="UTF-8"?>
<!DOCTYPE svg PUBLIC "-//W3C//DTD SVG 1.1//EN" "http://www.w3.org/Graphics/SVG/1.1/DTD/svg11.dtd">
<!-- Creator: CorelDRAW X7 -->
<svg xmlns="http://www.w3.org/2000/svg" xml:space="preserve" width="0.172587in" height="0.0966969in" version="1.1" style="shape-rendering:geometricPrecision; text-rendering:geometricPrecision; image-rendering:optimizeQuality; fill-rule:evenodd; clip-rule:evenodd"
viewBox="0 0 166 93"
 xmlns:xlink="http://www.w3.org/1999/xlink">
 <defs>
  <style type="text/css">
   <![CDATA[
    .fil0 {fill:#FEFEFE;fill-rule:nonzero}
   ]]>
  </style>
 </defs>
 <g id="Layer_x0020_1">
  <metadata id="CorelCorpID_0Corel-Layer"/>
  <path class="fil0" d="M47 44l0 41c0,1 -1,3 -2,4l0 0c-2,2 -4,2 -7,2l-29 0c-2,0 -5,0 -6,-2l0 0c-2,-1 -3,-3 -3,-4l0 -21 11 0 0 19 25 0 0 -32 -27 0c-2,0 -5,-1 -6,-2l0 0c-2,-1 -3,-3 -3,-5l0 -35c0,-2 1,-4 3,-5 1,-1 3,-2 6,-2l29 0c3,0 5,1 7,2l0 0c1,1 2,3 2,5l0 35zm11 -38c1,-1 2,-2 4,-2 2,0 4,1 3,3 -2,14 -4,27 -4,40 -1,14 0,27 1,39 1,2 -1,3 -3,3 -2,0 -3,-1 -4,-2 -1,-13 -2,-26 -1,-40 0,-13 2,-27 4,-41zm14 23l0 -20c0,-2 1,-4 2,-5l0 0c2,-1 4,-2 7,-2l29 0c2,0 5,1 6,2l0 0 0 0c2,1 3,3 3,5l0 21 0 0c0,2 0,3 -1,4 -1,1 -2,2 -3,3l0 0 -12 7 12 7c4,2 4,2 4,5l0 0 0 1 0 28c0,1 -1,3 -3,4l0 0 0 0c-1,2 -4,2 -6,2l-29 0c-3,0 -5,0 -7,-2l0 0c-1,-1 -2,-3 -2,-4l0 -21 11 0 0 19 25 0 0 -26 -16 -9 0 0c-1,0 -1,0 -1,0 -1,-1 -2,-2 -2,-4 0,-2 1,-3 3,-4l0 0 0 0 16 -9c0,0 0,-1 0,-1l0 0 0 -20 -25 0 0 19 -11 0zm-36 -19l-25 0 0 33 25 0 0 -33z"/>
  <path class="fil0" d="M133 93l0 -17c0,-3 1,-6 3,-8 1,-2 4,-3 7,-3 4,0 6,1 8,3 2,2 3,5 3,9l0 6 12 0 0 10 -33 0zm14 -10l0 -2c0,-2 0,-4 -1,-5 -1,0 -1,-1 -2,-1 -2,0 -2,1 -3,1 -1,1 -1,2 -1,4l0 3 7 0zm14 -39l0 11 5 2 0 10 -33 -12 0 -11 33 -12 0 10 -5 2zm-7 2l-12 4 12 3 0 -7zm-21 -10l0 -12 11 -6 -11 -7 0 -11 19 13 14 0 0 10 -14 0 -19 13z"/>
  <path class="fil0" d="M133 93l0 -17c0,-3 1,-6 3,-8 1,-2 4,-3 7,-3 4,0 6,1 8,3 2,2 3,5 3,9l0 6 12 0 0 10 -33 0zm14 -10l0 -2c0,-2 0,-4 -1,-5 -1,0 -1,-1 -2,-1 -2,0 -2,1 -3,1 -1,1 -1,2 -1,4l0 3 7 0zm14 -39l0 11 5 2 0 10 -33 -12 0 -11 33 -12 0 10 -5 2zm-7 2l-12 4 12 3 0 -7zm-21 -10l0 -12 11 -6 -11 -7 0 -11 19 13 14 0 0 10 -14 0 -19 13z"/>
 </g>
</svg>
